<svg xmlns="http://www.w3.org/2000/svg" width="295" height="295" viewBox="0 0 295 295">
  <defs>
    <radialGradient id="logo-koperasi-a" cx="19.314%" cy="88.595%" r="211.977%" fx="19.314%" fy="88.595%" gradientTransform="matrix(.56052 -.54492 .82814 .36882 -.649 .664)">
      <stop offset="0%" stop-color="#9CEBEE"/>
      <stop offset="100%" stop-color="#14AA76"/>
    </radialGradient>
  </defs>
  <g fill="none" fill-rule="evenodd" transform="translate(10 10)">
    <circle cx="777.5" cy="777.5" r="777.5" stroke="#979797" stroke-width="19" opacity=".151"/>
    <path fill="url(#logo-koperasi-a)" d="M597.561944,731.771071 C574.739282,702.448899 591.547408,549.82909 554.681559,417.258968 C541.367346,366.545169 610.657663,315.442287 637.858145,404.268358 C660.090874,474.573283 660.090874,591.740877 691.160681,591.740877 C713.78074,591.740877 710.966143,468.907757 703.467836,342.509366 C697.604259,290.572734 781.758108,257.163206 791.570463,346.699949 C794.340779,421.51903 785.434762,580.421737 817.908887,591.740877 C835.789619,594.416816 848.142459,522.22603 851.674112,417.258968 C847.713417,377.856369 921.113403,342.509366 928.027736,421.51903 C932.820693,442.499738 912.109475,576.08227 915.956951,617.511674 C918.513327,641.805543 944.613395,632.940007 971.855589,543.845946 C988.254536,500.070133 1047.23791,515.252312 1031.29184,572.092184 C1010.97391,643.280485 1000.85964,649.718221 982.275753,744.118502 C975.456763,819.136096 975.456763,917.460954 921.113403,966.977727 C889.777431,1003.72622 732.988324,1065.96363 651.73051,974.413978 C640.988564,959.549417 612.564517,923.336902 674.646528,880.118908 C746.697812,837.240368 862.948388,825.341573 867.802921,756.22772 C867.802921,744.118502 862.948388,701.850026 742.381568,737.089201 C697.747273,749.198418 626.565992,772.662508 597.561944,731.771071 Z"/>
    <path fill="#848484" d="M486.128809 1079.31881C491.783009 1081.50755 495.821723 1086.77676 495.821723 1093.26193 495.821723 1101.85479 488.955909 1108.74529 480.393834 1108.74529L456 1108.74529 456 1052 478.536026 1052C486.775003 1052 493.398494 1058.72837 493.398494 1066.91591 493.398494 1072.42831 490.49062 1076.96793 486.128809 1079.31881zM478.536026 1056.05324L460.281037 1056.05324 460.281037 1077.77858 478.536026 1077.77858C484.351774 1077.77858 489.117457 1072.91469 489.117457 1066.91591 489.117457 1060.91712 484.351774 1056.05324 478.536026 1056.05324zM480.393834 1104.69206C486.53268 1104.69206 491.540686 1099.58498 491.540686 1093.26193 491.540686 1086.93889 486.53268 1081.83181 480.393834 1081.83181L460.281037 1081.83181 460.281037 1104.69206 480.393834 1104.69206zM523.688852 1067.32123C535.966543 1067.32123 543.6401 1077.53538 543.6401 1088.64125 543.6401 1089.28976 543.559326 1089.93828 543.559326 1090.5868L506.968575 1090.5868C507.937866 1099.74711 514.884455 1105.7459 524.092723 1105.7459 530.716215 1105.7459 535.72422 1102.66544 538.066675 1098.36901L541.620743 1100.47669C538.308997 1105.98909 532.008603 1109.637 524.011949 1109.637 511.572709 1109.637 502.768312 1100.71989 502.768312 1088.47912 502.768312 1076.56261 511.330386 1067.32123 523.688852 1067.32123zM523.688852 1071.21233C514.480583 1071.21233 507.776317 1077.61645 506.968575 1086.61463L539.439837 1086.61463C538.55132 1076.72473 531.604732 1071.21233 523.688852 1071.21233zM557.129406 1076.15728C559.875732 1069.75317 565.12606 1067.64549 570.618712 1067.64549L570.618712 1071.53659C563.672123 1071.53659 557.129406 1075.83302 557.129406 1086.2093L557.129406 1108.74529 553.090692 1108.74529 553.090692 1068.21294 557.129406 1068.21294 557.129406 1076.15728zM609.713466 1108.74529L604.220815 1108.74529 582.815629 1088.80338 582.815629 1108.74529 578.776915 1108.74529 578.776915 1052 582.815629 1052 582.815629 1086.61463 603.251523 1068.21294 608.905724 1068.21294 587.177441 1087.66847 609.713466 1108.74529zM653.331581 1068.21294L657.451069 1068.21294 657.451069 1108.74529 653.331581 1108.74529 653.331581 1099.58498C649.939061 1105.66483 643.719441 1109.637 635.965109 1109.637 624.495161 1109.637 615.044569 1100.47669 615.044569 1088.47912 615.044569 1076.48154 624.495161 1067.32123 635.965109 1067.32123 643.719441 1067.32123 649.939061 1071.2934 653.331581 1077.37325L653.331581 1068.21294zM636.288206 1105.7459C645.900347 1105.7459 653.331581 1098.12582 653.331581 1088.47912 653.331581 1078.83242 645.900347 1071.21233 636.288206 1071.21233 626.676066 1071.21233 619.164058 1078.83242 619.164058 1088.47912 619.164058 1098.12582 626.676066 1105.7459 636.288206 1105.7459zM673.929024 1076.15728C676.67535 1069.75317 681.925678 1067.64549 687.41833 1067.64549L687.41833 1071.53659C680.471741 1071.53659 673.929024 1075.83302 673.929024 1086.2093L673.929024 1108.74529 669.890309 1108.74529 669.890309 1068.21294 673.929024 1068.21294 673.929024 1076.15728zM725.139921 1068.21294L729.501733 1068.21294 712.054487 1112.47427C708.985064 1120.25648 703.007767 1125.52569 696.061178 1124.95823L696.061178 1121.14819C701.473055 1121.63458 705.592544 1117.58135 708.096547 1111.66362L708.985064 1109.47487 690.406978 1068.21294 694.76879 1068.21294 711.085195 1104.28673 725.139921 1068.21294zM772.312104 1068.21294L776.431593 1068.21294 776.431593 1108.74529 772.312104 1108.74529 772.312104 1099.58498C768.919584 1105.66483 762.699964 1109.637 754.945633 1109.637 743.475684 1109.637 734.025093 1100.47669 734.025093 1088.47912 734.025093 1076.48154 743.475684 1067.32123 754.945633 1067.32123 762.699964 1067.32123 768.919584 1071.2934 772.312104 1077.37325L772.312104 1068.21294zM755.26873 1105.7459C764.88087 1105.7459 772.312104 1098.12582 772.312104 1088.47912 772.312104 1078.83242 764.88087 1071.21233 755.26873 1071.21233 745.65659 1071.21233 738.144581 1078.83242 738.144581 1088.47912 738.144581 1098.12582 745.65659 1105.7459 755.26873 1105.7459zM841.374119 1079.31881C847.028319 1081.50755 851.067033 1086.77676 851.067033 1093.26193 851.067033 1101.85479 844.201219 1108.74529 835.639144 1108.74529L811.24531 1108.74529 811.24531 1052 833.781336 1052C842.020313 1052 848.643805 1058.72837 848.643805 1066.91591 848.643805 1072.42831 845.73593 1076.96793 841.374119 1079.31881zM833.781336 1056.05324L815.526347 1056.05324 815.526347 1077.77858 833.781336 1077.77858C839.597084 1077.77858 844.362767 1072.91469 844.362767 1066.91591 844.362767 1060.91712 839.597084 1056.05324 833.781336 1056.05324zM835.639144 1104.69206C841.77799 1104.69206 846.785996 1099.58498 846.785996 1093.26193 846.785996 1086.93889 841.77799 1081.83181 835.639144 1081.83181L815.526347 1081.83181 815.526347 1104.69206 835.639144 1104.69206zM878.934162 1067.32123C891.211853 1067.32123 898.88541 1077.53538 898.88541 1088.64125 898.88541 1089.28976 898.804636 1089.93828 898.804636 1090.5868L862.213885 1090.5868C863.183176 1099.74711 870.129765 1105.7459 879.338033 1105.7459 885.961525 1105.7459 890.96953 1102.66544 893.311985 1098.36901L896.866053 1100.47669C893.554308 1105.98909 887.253913 1109.637 879.257259 1109.637 866.818019 1109.637 858.013622 1100.71989 858.013622 1088.47912 858.013622 1076.56261 866.575696 1067.32123 878.934162 1067.32123zM878.934162 1071.21233C869.725893 1071.21233 863.021627 1077.61645 862.213885 1086.61463L894.685148 1086.61463C893.79663 1076.72473 886.850042 1071.21233 878.934162 1071.21233zM912.374716 1076.15728C915.121042 1069.75317 920.371371 1067.64549 925.864022 1067.64549L925.864022 1071.53659C918.917433 1071.53659 912.374716 1075.83302 912.374716 1086.2093L912.374716 1108.74529 908.336002 1108.74529 908.336002 1068.21294 912.374716 1068.21294 912.374716 1076.15728zM936.768551 1078.83242C936.768551 1089.69509 961.243159 1083.29098 961.243159 1098.12582 961.243159 1104.77312 955.427411 1109.637 946.784562 1109.637 938.707133 1109.637 933.376031 1105.82696 931.437448 1100.63882L934.910742 1098.6122C936.364679 1102.9897 940.726491 1105.7459 946.784562 1105.7459 952.438762 1105.7459 957.204445 1103.23289 957.204445 1098.12582 957.204445 1087.10102 932.729836 1093.42406 932.729836 1078.83242 932.729836 1072.42831 938.222488 1067.32123 946.461465 1067.32123 953.004182 1067.32123 958.012188 1070.48275 960.193094 1075.4277L956.800574 1077.37325C955.104314 1073.15789 950.904051 1071.21233 946.461465 1071.21233 941.211136 1071.21233 936.768551 1073.96853 936.768551 1078.83242zM1006.55753 1068.21294L1010.67702 1068.21294 1010.67702 1108.74529 1006.55753 1108.74529 1006.55753 1099.58498C1003.16501 1105.66483 996.945394 1109.637 989.191062 1109.637 977.721114 1109.637 968.270522 1100.47669 968.270522 1088.47912 968.270522 1076.48154 977.721114 1067.32123 989.191062 1067.32123 996.945394 1067.32123 1003.16501 1071.2934 1006.55753 1077.37325L1006.55753 1068.21294zM989.514159 1105.7459C999.126299 1105.7459 1006.55753 1098.12582 1006.55753 1088.47912 1006.55753 1078.83242 999.126299 1071.21233 989.514159 1071.21233 979.902019 1071.21233 972.390011 1078.83242 972.390011 1088.47912 972.390011 1098.12582 979.902019 1105.7459 989.514159 1105.7459zM1066.24973 1067.32123C1074.81181 1067.32123 1080.95065 1072.91469 1080.95065 1083.04778L1080.95065 1108.74529 1076.91194 1108.74529 1076.91194 1083.04778C1076.91194 1075.34663 1072.46935 1071.21233 1066.16896 1071.21233 1059.38392 1071.21233 1054.05281 1075.75196 1054.05281 1086.12824L1054.05281 1108.74529 1050.0141 1108.74529 1050.0141 1083.04778C1050.0141 1075.34663 1045.89461 1071.21233 1039.67499 1071.21233 1033.0515 1071.21233 1027.15498 1075.75196 1027.15498 1086.12824L1027.15498 1108.74529 1023.11626 1108.74529 1023.11626 1068.21294 1027.15498 1068.21294 1027.15498 1075.18451C1030.14363 1069.59104 1034.99008 1067.32123 1040.15964 1067.32123 1046.05616 1067.32123 1050.66029 1070.23956 1052.76043 1075.58983 1055.6683 1069.9153 1060.83785 1067.32123 1066.24973 1067.32123zM1127.88051 1068.21294L1132 1068.21294 1132 1108.74529 1127.88051 1108.74529 1127.88051 1099.58498C1124.48799 1105.66483 1118.26837 1109.637 1110.51404 1109.637 1099.04409 1109.637 1089.5935 1100.47669 1089.5935 1088.47912 1089.5935 1076.48154 1099.04409 1067.32123 1110.51404 1067.32123 1118.26837 1067.32123 1124.48799 1071.2934 1127.88051 1077.37325L1127.88051 1068.21294zM1110.83714 1105.7459C1120.44928 1105.7459 1127.88051 1098.12582 1127.88051 1088.47912 1127.88051 1078.83242 1120.44928 1071.21233 1110.83714 1071.21233 1101.225 1071.21233 1093.71299 1078.83242 1093.71299 1088.47912 1093.71299 1098.12582 1101.225 1105.7459 1110.83714 1105.7459zM258.869733 1171.42589L289.0406 1211.74426 286.14162 1211.74426C283.206835 1211.74426 280.62999 1211.4038 278.411006 1210.72286 276.192023 1210.04192 274.330968 1208.62632 272.827785 1206.47599L252.642294 1179.48956 245.770637 1188.30585 245.770637 1204.00313C245.770637 1204.93494 245.591689 1205.81297 245.233789 1206.63727 244.875888 1207.46156 244.410624 1208.12456 243.837983 1208.6263 243.265343 1209.12805 242.639026 1209.57602 241.959015 1209.97025 241.279004 1210.36448 240.581108 1210.6691 239.865307 1210.88413 239.149506 1211.09917 238.505294 1211.26044 237.932653 1211.36795 237.360013 1211.47547 236.894749 1211.56507 236.536848 1211.63674L236 1211.63674 236 1143.14927C236 1142.14578 236.178948 1141.24983 236.536848 1140.46138 236.894749 1139.67293 237.360013 1139.00992 237.932653 1138.47234 238.505294 1137.93476 239.149506 1137.46886 239.865307 1137.07463 240.581108 1136.68041 241.279004 1136.3937 241.959015 1136.21451 242.639026 1136.03532 243.265343 1135.87404 243.837983 1135.73069 244.410624 1135.58733 244.875888 1135.51566 245.233789 1135.51566L245.770637 1135.40814 245.770637 1174.54384 272.935155 1139.49374C275.154138 1136.76999 278.912038 1135.40814 284.208967 1135.40814L286.785838 1135.40814 258.869733 1171.42589zM301.066 1163.03967C306.219768 1157.44882 312.465039 1154.65344 319.802001 1154.65344 327.138963 1154.65344 333.384234 1157.44882 338.538003 1163.03967 343.691771 1168.63051 346.268617 1175.36809 346.268617 1183.25261 346.268617 1191.13713 343.691771 1197.85679 338.538003 1203.4118 333.384234 1208.9668 327.138963 1211.74426 319.802001 1211.74426 312.465039 1211.74426 306.219768 1208.9668 301.066 1203.4118 295.912231 1197.85679 293.335386 1191.13713 293.335386 1183.25261 293.335386 1175.36809 295.912231 1168.63051 301.066 1163.03967zM307.937656 1197.44468C311.230342 1201.31526 315.185084 1203.25052 319.802001 1203.25052 324.418919 1203.25052 328.355766 1201.29734 331.612661 1197.39092 334.869556 1193.4845 336.49798 1188.77177 336.49798 1183.25261 336.49798 1177.73344 334.869556 1173.02072 331.612661 1169.1143 328.355766 1165.20788 324.418919 1163.2547 319.802001 1163.2547 315.185084 1163.2547 311.248236 1165.20788 307.991341 1169.1143 304.734446 1173.02072 303.106023 1177.73344 303.106023 1183.25261 303.106023 1188.77177 304.716551 1193.50242 307.937656 1197.44468zM383.418511 1154.65344C389.574401 1154.65344 395.175461 1157.46674 400.221859 1163.09342 405.268257 1168.7201 407.791418 1175.29641 407.791418 1182.82255 407.791418 1190.9221 405.39352 1197.7672 400.597652 1203.35804 395.801785 1208.94888 389.359671 1211.74426 381.271118 1211.74426 378.479493 1211.74426 376.010017 1211.29628 373.862613 1210.40031 371.71521 1209.50434 369.388891 1207.80203 366.883587 1205.29332L366.883587 1225.82881C366.883587 1227.26236 366.561481 1228.5167 365.91726 1229.59186 365.273039 1230.66702 364.467775 1231.47338 363.501443 1232.01096 362.535112 1232.54854 361.568795 1232.9786 360.602463 1233.30115 359.636131 1233.6237 358.795078 1233.82081 358.079277 1233.89248L357.11295 1234 357.11295 1169.81315C357.11295 1168.52296 357.757161 1167.44781 359.045603 1166.58768 360.334045 1165.72755 361.765626 1165.01079 363.340389 1164.43737 364.915151 1163.86395 365.881468 1163.32638 366.239369 1162.82463 368.315192 1159.67083 370.695195 1157.52053 373.37945 1156.3737 376.063704 1155.22686 379.410024 1154.65344 383.418511 1154.65344zM381.271118 1203.35804C386.281726 1203.35804 390.308047 1201.36902 393.350202 1197.39092 396.392357 1193.41282 397.913412 1188.55674 397.913412 1182.82255 397.913412 1177.44674 396.302883 1172.82361 393.081778 1168.95303 389.860673 1165.08244 385.959615 1163.14718 381.378488 1163.14718 379.087924 1163.14718 376.958447 1163.66684 374.989994 1164.70616 373.021541 1165.74548 371.482592 1167.01774 370.3731 1168.52296 369.263608 1170.02819 368.40466 1171.55131 367.796229 1173.09238 367.187798 1174.63345 366.883587 1175.97738 366.883587 1177.12422L366.883587 1188.62839C366.883587 1192.92904 368.422536 1196.4591 371.500481 1199.21868 374.578426 1201.97827 377.835272 1203.35804 381.271118 1203.35804zM466.844718 1177.44676C467.274199 1179.95548 466.343671 1182.12369 464.053108 1183.95146 461.762544 1185.77924 459.901489 1186.76479 458.469886 1186.90814L427.332692 1190.0261C428.692714 1193.96836 430.840085 1197.15796 433.77487 1199.59499 436.709655 1202.03202 439.930712 1203.28636 443.438137 1203.35804 445.943441 1203.35804 448.216076 1202.98174 450.256109 1202.22912 452.296143 1201.47651 454.711935 1200.20425 457.50356 1198.41232 458.434101 1197.8389 459.114102 1197.94641 459.543583 1198.73486 459.829903 1199.37996 459.579377 1200.13256 458.791995 1200.99269 455.928791 1203.93147 452.815102 1206.45806 449.450837 1208.57255 446.086572 1210.68703 443.402358 1211.74426 441.398114 1211.74426 440.181252 1211.74426 438.678092 1211.51131 436.88859 1211.04541 435.099087 1210.5795 432.96961 1209.68355 430.500096 1208.35752 428.030582 1207.03148 425.775842 1205.38293 423.735809 1203.4118 421.695776 1201.44067 419.959984 1198.71696 418.528382 1195.24061 417.096779 1191.76425 416.380989 1187.91164 416.380989 1183.68267 416.380989 1175.86983 419.083098 1169.09641 424.487397 1163.36221 429.891695 1157.62802 436.244335 1154.76096 443.545507 1154.76096 447.052933 1154.76096 450.220305 1155.37021 453.04772 1156.58873 455.875134 1157.80724 458.183558 1159.50956 459.973061 1161.69572 461.762564 1163.88188 463.229935 1166.28304 464.375216 1168.89927 465.520498 1171.5155 466.343657 1174.36463 466.844718 1177.44676zM426.151626 1181.74739L456.644603 1178.52192C456.644603 1173.64785 454.98039 1169.72357 451.651915 1166.74896 448.323439 1163.77434 444.511855 1162.64544 440.217048 1163.36221 436.351722 1164.00731 433.076981 1166.12176 430.392727 1169.70564 427.708472 1173.28951 426.294786 1177.30339 426.151626 1181.74739zM502.276698 1154.65344C503.3504 1154.65344 504.710402 1154.90431 506.356744 1155.40605 506.285164 1155.62109 506.19569 1155.90779 506.08832 1156.26618 505.98095 1156.62457 505.694634 1157.25174 505.229363 1158.1477 504.764092 1159.04367 504.245144 1159.83211 503.672503 1160.51305 503.099862 1161.19398 502.330388 1161.80323 501.364056 1162.34081 500.397725 1162.8784 499.306144 1163.14718 498.089282 1163.14718 494.653437 1163.00383 491.843959 1164.25816 489.660766 1166.91023 487.477572 1169.5623 486.385992 1172.21432 486.385992 1174.86639L486.385992 1203.46555C486.385992 1204.8991 486.045991 1206.17136 485.36598 1207.28236 484.685969 1208.39336 483.880705 1209.21764 482.950164 1209.75522 482.019622 1210.2928 481.0712 1210.72286 480.104868 1211.04541 479.138537 1211.36796 478.297483 1211.56507 477.581682 1211.63674L476.615355 1211.74426 476.615355 1169.92067C476.615355 1168.5588 477.223777 1167.48365 478.440639 1166.6952 479.657501 1165.90675 481.053292 1165.2079 482.628055 1164.59864 484.202817 1163.98938 485.240713 1163.39805 485.741774 1162.82463 487.674437 1159.88586 489.964967 1157.78932 492.613431 1156.53497 495.261895 1155.28061 498.482952 1154.65344 502.276698 1154.65344zM531.588609 1154.65344C534.308653 1154.65344 536.77813 1155.02975 538.997114 1155.78236 541.216097 1156.53497 543.309784 1157.71763 545.278237 1159.33038 547.246691 1160.94312 548.767745 1163.2726 549.841447 1166.31889 550.915149 1169.36519 551.451992 1173.00276 551.451992 1177.23173L551.451992 1197.01461C551.451992 1198.6632 550.861464 1199.91753 549.680393 1200.77766 548.499321 1201.63779 547.103529 1202.33664 545.492977 1202.87422 543.882424 1203.4118 542.826633 1204.00313 542.325572 1204.64823 540.464489 1207.01358 538.120276 1208.78757 535.292861 1209.97025 532.465447 1211.15293 529.691759 1211.74426 526.971714 1211.74426 525.683272 1211.74426 524.305376 1211.58299 522.837983 1211.26044 521.370591 1210.93789 519.760063 1210.34656 518.00635 1209.48643 516.252637 1208.6263 514.695793 1207.53324 513.335771 1206.2072 511.975748 1204.88117 510.830484 1203.08926 509.899942 1200.83142 508.969401 1198.57358 508.504137 1196.04699 508.504137 1193.25157 508.504137 1187.58905 510.365192 1182.89424 514.087358 1179.16701 517.809524 1175.43979 523.106373 1173.5762 529.978064 1173.5762 531.624407 1173.5762 535.525465 1174.25713 541.681355 1175.619 541.538194 1172.1068 540.39293 1169.13223 538.245526 1166.6952 536.098123 1164.25816 533.234961 1163.03967 529.655955 1163.03967 527.150651 1163.11134 524.878017 1163.50556 522.837983 1164.22234 520.79795 1164.93911 518.346368 1166.22929 515.483163 1168.0929 514.552622 1168.66632 513.90841 1168.55881 513.55051 1167.77035 513.192609 1167.12526 513.443136 1166.37266 514.302097 1165.51253 517.093722 1162.50207 520.189515 1159.93964 523.589571 1157.82516 526.989626 1155.71067 529.655946 1154.65344 531.588609 1154.65344zM541.681355 1193.89666L541.681355 1183.46764C536.312846 1182.3208 532.197051 1181.8549 529.333846 1182.06994 526.399062 1182.21329 523.822216 1183.21676 521.603233 1185.08038 519.384249 1186.94399 518.274774 1189.59602 518.274774 1193.03653 518.274774 1196.04699 519.241091 1198.51982 521.173754 1200.45511 523.106417 1202.39041 525.719052 1203.35804 529.011738 1203.35804 531.660202 1203.35804 534.43389 1202.37249 537.332884 1200.40136 540.231879 1198.43023 541.681355 1196.26202 541.681355 1193.89666zM579.475467 1177.44676C584.557655 1179.45373 588.440818 1181.81905 591.125072 1184.5428 593.809326 1187.26654 595.151434 1190.85036 595.151434 1195.29436 595.151434 1200.45514 593.18301 1204.48694 589.246104 1207.38987 585.309197 1210.29281 579.90498 1211.74426 573.033288 1211.74426 571.315366 1211.74426 569.132205 1211.49339 566.483741 1210.99165 563.835276 1210.48991 561.687905 1209.7373 560.041562 1208.73382 560.041562 1208.59047 560.095247 1208.39336 560.202617 1208.14248 560.309987 1207.89161 560.506829 1207.42572 560.79315 1206.74478 561.07947 1206.06384 561.419471 1205.47251 561.813161 1204.97077 562.206852 1204.46903 562.76159 1204.02105 563.477391 1203.62683 564.193192 1203.2326 564.980561 1203.03549 565.839523 1203.03549 566.555324 1203.03549 567.807957 1203.17884 569.59746 1203.46555 571.386963 1203.75226 573.534334 1203.82394 576.039638 1203.68058 578.115462 1203.53723 580.244938 1202.76671 582.428132 1201.369 584.611325 1199.97129 585.702906 1198.23313 585.702906 1196.15449 585.702906 1193.93249 584.951326 1192.12266 583.448143 1190.72495 581.944961 1189.32724 579.332326 1187.91163 575.61016 1186.47808 566.233165 1183.18092 561.544737 1177.87686 561.544737 1170.56576 561.544737 1166.12176 563.226845 1162.35875 566.59111 1159.27662 569.955376 1156.19449 574.464855 1154.65344 580.119684 1154.65344 581.694447 1154.65344 583.680765 1154.94015 586.078699 1155.51357 588.476633 1156.08699 590.462952 1156.6604 592.037714 1157.23382 593.612477 1157.80724 594.399846 1158.12978 594.399846 1158.20146 594.328266 1158.55985 594.185108 1158.97199 593.970368 1159.43789 593.755627 1159.90379 593.433521 1160.38761 593.004041 1160.88935 592.57456 1161.3911 592.019823 1161.85699 591.339811 1162.28706 590.6598 1162.71712 589.926115 1163.0755 589.138734 1163.36221 587.993452 1163.57725 587.04503 1163.66684 586.293439 1163.631 585.541847 1163.59516 584.432372 1163.48765 582.96498 1163.30846 581.497587 1163.12926 580.334428 1163.03967 579.475467 1163.03967 577.328063 1163.03967 575.35964 1163.64892 573.570137 1164.86743 571.780634 1166.08595 570.885896 1167.62699 570.885896 1169.49061 570.885896 1171.28254 571.458528 1172.73399 572.60381 1173.84499 573.749092 1174.95599 576.039621 1176.15657 579.475467 1177.44676zM614.263229 1146.37474C613.332687 1147.30655 612.187423 1147.77244 610.8274 1147.77244 609.467378 1147.77244 608.304219 1147.28863 607.337887 1146.32098 606.371556 1145.35334 605.888397 1144.18859 605.888397 1142.82672 605.888397 1141.46485 606.371556 1140.30011 607.337887 1139.33246 608.304219 1138.36482 609.467378 1137.881 610.8274 1137.881 612.187423 1137.881 613.332687 1138.36482 614.263229 1139.33246 615.19377 1140.30011 615.659034 1141.46485 615.659034 1142.82672 615.659034 1144.18859 615.19377 1145.37125 614.263229 1146.37474zM605.888397 1162.93215C605.888397 1158.84653 608.429453 1156.23035 613.511641 1155.08351 614.513763 1154.7968 615.229553 1154.65344 615.659034 1154.65344L615.659034 1203.46555C615.659034 1204.8991 615.319034 1206.17136 614.639023 1207.28236 613.959011 1208.39336 613.153747 1209.21764 612.223206 1209.75522 611.292664 1210.2928 610.344242 1210.72286 609.37791 1211.04541 608.411579 1211.36796 607.570525 1211.56507 606.854724 1211.63674L605.888397 1211.74426 605.888397 1162.93215zM726.571868 1211.74426L723.780258 1211.74426C721.776015 1211.74426 719.807591 1211.33212 717.874928 1210.50783 715.942265 1209.68354 714.653842 1208.37544 714.009621 1206.58351L707.996921 1188.95094 680.295555 1188.95094 674.282855 1206.58351C673.567054 1208.5188 672.260737 1209.86273 670.363864 1210.61534 668.466991 1211.36796 666.552251 1211.74426 664.619588 1211.74426L663.223783 1211.74426 688.133539 1142.61169C688.92092 1140.38969 690.101974 1138.63362 691.676737 1137.34342 693.251499 1136.05323 695.076765 1135.40814 697.152588 1135.40814L699.192611 1135.40814 726.571868 1211.74426zM694.146238 1148.52505L683.194535 1180.56472 705.097941 1180.56472 694.146238 1148.52505zM772.418703 1162.82463C772.776604 1163.32638 773.742921 1163.86395 775.317683 1164.43737 776.892446 1165.01079 778.324027 1165.72755 779.612469 1166.58768 780.900911 1167.44781 781.545122 1168.52296 781.545122 1169.81315L781.545122 1207.8737C781.545122 1211.60092 780.990385 1214.98763 779.880893 1218.03392 778.771401 1221.08022 777.33982 1223.57097 775.586107 1225.50626 773.832395 1227.44155 771.828181 1229.07219 769.573408 1230.39823 767.318634 1231.72426 765.099684 1232.65605 762.91649 1233.19363 760.733297 1233.73121 758.60382 1234 756.527997 1234 755.239555 1234 753.575342 1233.5341 751.535309 1232.6023 749.495276 1231.67049 747.347904 1230.38031 745.093131 1228.73173 742.838357 1227.08315 740.816249 1225.29124 739.026746 1223.35595 737.881464 1222.20911 737.774096 1221.31316 738.704637 1220.66806 739.205698 1220.30967 739.77833 1220.30967 740.422551 1220.66806 743.142596 1222.46 745.612073 1223.69641 747.831056 1224.37735 750.05004 1225.05828 752.483727 1225.39875 755.132192 1225.39875 756.205893 1225.39875 757.404842 1225.25539 758.729074 1224.96868 760.053307 1224.68197 761.502782 1224.1444 763.077545 1223.35595 764.652307 1222.5675 766.065993 1221.58195 767.318645 1220.39927 768.571297 1219.21659 769.609193 1217.62179 770.432365 1215.61482 771.255536 1213.60785 771.667116 1211.35005 771.667116 1208.84134L771.667116 1205.40084C769.233392 1207.83787 766.942862 1209.50434 764.795459 1210.40031 762.648055 1211.29628 760.178579 1211.74426 757.386954 1211.74426 750.014202 1211.74426 743.751036 1209.00264 738.597268 1203.51931 733.443499 1198.03599 730.866654 1191.388 730.866654 1183.57516 730.866654 1175.97735 733.389815 1169.25768 738.436213 1163.41597 743.482611 1157.57426 749.083671 1154.65344 755.239561 1154.65344 757.816445 1154.65344 760.071185 1154.86847 762.003848 1155.29854 763.936511 1155.7286 765.797567 1156.55288 767.587069 1157.7714 769.376572 1158.98992 770.987101 1160.67431 772.418703 1162.82463zM771.667116 1188.62839L771.667116 1177.33925C771.667116 1175.40396 771.183957 1173.39702 770.217626 1171.31837 769.251294 1169.23973 767.604976 1167.35822 765.278622 1165.6738 762.952269 1163.98938 760.25016 1163.14718 757.172215 1163.14718 752.662667 1163.14718 748.779504 1165.18996 745.522609 1169.27557 742.265714 1173.36119 740.637291 1178.12767 740.637291 1183.57516 740.637291 1189.02264 742.265714 1193.68161 745.522609 1197.55219 748.779504 1201.42278 752.734247 1203.35804 757.386954 1203.35804 760.8228 1203.35804 764.061751 1201.99619 767.103906 1199.27244 770.146061 1196.5487 771.667116 1193.00072 771.667116 1188.62839zM819.017125 1154.65344C820.090827 1154.65344 821.450829 1154.90431 823.097171 1155.40605 823.025591 1155.62109 822.936118 1155.90779 822.828747 1156.26618 822.721377 1156.62457 822.435061 1157.25174 821.96979 1158.1477 821.50452 1159.04367 820.985571 1159.83211 820.412931 1160.51305 819.84029 1161.19398 819.070815 1161.80323 818.104483 1162.34081 817.138152 1162.8784 816.046571 1163.14718 814.829709 1163.14718 811.393864 1163.00383 808.584387 1164.25816 806.401193 1166.91023 804.217999 1169.5623 803.126419 1172.21432 803.126419 1174.86639L803.126419 1203.46555C803.126419 1204.8991 802.786419 1206.17136 802.106408 1207.28236 801.426396 1208.39336 800.621132 1209.21764 799.690591 1209.75522 798.760049 1210.2928 797.811627 1210.72286 796.845295 1211.04541 795.878964 1211.36796 795.03791 1211.56507 794.322109 1211.63674L793.355782 1211.74426 793.355782 1169.92067C793.355782 1168.5588 793.964204 1167.48365 795.181066 1166.6952 796.397928 1165.90675 797.793719 1165.2079 799.368482 1164.59864 800.943244 1163.98938 801.98114 1163.39805 802.482201 1162.82463 804.414864 1159.88586 806.705394 1157.78932 809.353858 1156.53497 812.002322 1155.28061 815.223379 1154.65344 819.017125 1154.65344zM840.061574 1146.37474C839.131032 1147.30655 837.985768 1147.77244 836.625746 1147.77244 835.265723 1147.77244 834.102564 1147.28863 833.136232 1146.32098 832.169901 1145.35334 831.686742 1144.18859 831.686742 1142.82672 831.686742 1141.46485 832.169901 1140.30011 833.136232 1139.33246 834.102564 1138.36482 835.265723 1137.881 836.625746 1137.881 837.985768 1137.881 839.131032 1138.36482 840.061574 1139.33246 840.992115 1140.30011 841.457379 1141.46485 841.457379 1142.82672 841.457379 1144.18859 840.992115 1145.37125 840.061574 1146.37474zM831.686742 1162.93215C831.686742 1158.84653 834.227798 1156.23035 839.309987 1155.08351 840.312108 1154.7968 841.027899 1154.65344 841.457379 1154.65344L841.457379 1203.46555C841.457379 1204.8991 841.117379 1206.17136 840.437368 1207.28236 839.757357 1208.39336 838.952092 1209.21764 838.021551 1209.75522 837.091009 1210.2928 836.142587 1210.72286 835.176256 1211.04541 834.209924 1211.36796 833.36887 1211.56507 832.653069 1211.63674L831.686742 1211.74426 831.686742 1162.93215zM911.891861 1171.42589L942.062728 1211.74426 939.163748 1211.74426C936.228964 1211.74426 933.652118 1211.4038 931.433135 1210.72286 929.214151 1210.04192 927.353096 1208.62632 925.849913 1206.47599L905.664422 1179.48956 898.792765 1188.30585 898.792765 1204.00313C898.792765 1204.93494 898.613817 1205.81297 898.255917 1206.63727 897.898016 1207.46156 897.432753 1208.12456 896.860112 1208.6263 896.287471 1209.12805 895.661154 1209.57602 894.981143 1209.97025 894.301132 1210.36448 893.603236 1210.6691 892.887435 1210.88413 892.171634 1211.09917 891.527423 1211.26044 890.954782 1211.36795 890.382141 1211.47547 889.916877 1211.56507 889.558976 1211.63674L889.022128 1211.63674 889.022128 1143.14927C889.022128 1142.14578 889.201076 1141.24983 889.558976 1140.46138 889.916877 1139.67293 890.382141 1139.00992 890.954782 1138.47234 891.527423 1137.93476 892.171634 1137.46886 892.887435 1137.07463 893.603236 1136.68041 894.301132 1136.3937 894.981143 1136.21451 895.661154 1136.03532 896.287471 1135.87404 896.860112 1135.73069 897.432753 1135.58733 897.898016 1135.51566 898.255917 1135.51566L898.792765 1135.40814 898.792765 1174.54384 925.957283 1139.49374C928.176267 1136.76999 931.934166 1135.40814 937.231095 1135.40814L939.807966 1135.40814 911.891861 1171.42589zM982.541081 1162.82463C982.541081 1161.39109 982.881082 1160.13675 983.561093 1159.06159 984.241104 1157.98642 985.028473 1157.18007 985.923225 1156.64248 986.817976 1156.1049 987.802188 1155.67485 988.87589 1155.3523 989.949592 1155.02975 990.754856 1154.83264 991.291707 1154.76096 991.828558 1154.68928 992.168558 1154.65344 992.311718 1154.65344L992.311718 1196.58455C992.311718 1197.87475 991.721191 1198.93197 990.540119 1199.75626 989.359047 1200.58055 987.963256 1201.2794 986.352703 1201.85282 984.742151 1202.42624 983.68636 1202.99965 983.185299 1203.57307 981.324216 1206.58352 979.069476 1208.69798 976.421012 1209.91649 973.772548 1211.13501 970.515701 1211.74426 966.650375 1211.74426 961.639767 1211.74426 957.362919 1209.7194 953.819704 1205.66962 950.276488 1201.61985 948.504907 1196.26204 948.504907 1189.59603L948.504907 1154.65344C948.791227 1154.72512 949.149122 1154.77888 949.578603 1154.81472 950.008084 1154.85056 950.795453 1155.02975 951.940735 1155.3523 953.086017 1155.67485 954.088123 1156.1049 954.947085 1156.64248 955.806046 1157.18007 956.575521 1157.98642 957.255532 1159.06159 957.935543 1160.13675 958.275544 1161.39109 958.275544 1162.82463L958.275544 1188.52088C958.275544 1190.24114 958.472386 1191.88969 958.866077 1193.4666 959.259767 1195.0435 959.886084 1196.62038 960.745045 1198.19729 961.604007 1199.77419 962.892429 1201.02853 964.610352 1201.96033 966.328275 1202.89214 968.404067 1203.35804 970.837791 1203.35804 974.345217 1203.35804 977.172589 1202.04994 979.319992 1199.43372 981.467396 1196.81749 982.541081 1194.18338 982.541081 1191.53132L982.541081 1162.82463zM1005.19607 1139.27871C1005.19607 1137.84516 1005.53608 1136.5729 1006.21609 1135.4619 1006.8961 1134.3509 1007.71926 1133.52662 1008.68559 1132.98904 1009.65192 1132.45146 1010.61824 1132.0214 1011.58457 1131.69885 1012.5509 1131.3763 1013.35616 1131.17919 1014.00038 1131.10752L1014.96671 1131 1014.96671 1203.46555C1014.96671 1204.8991 1014.64461 1206.17136 1014.00038 1207.28236 1013.35616 1208.39336 1012.5509 1209.21764 1011.58457 1209.75522 1010.61824 1210.2928 1009.65192 1210.72286 1008.68559 1211.04541 1007.71926 1211.36796 1006.8782 1211.56507 1006.1624 1211.63674L1005.19607 1211.74426 1005.19607 1139.27871zM1049.86184 1154.65344C1052.58189 1154.65344 1055.05136 1155.02975 1057.27035 1155.78236 1059.48933 1156.53497 1061.58302 1157.71763 1063.55147 1159.33038 1065.51993 1160.94312 1067.04098 1163.2726 1068.11468 1166.31889 1069.18838 1169.36519 1069.72523 1173.00276 1069.72523 1177.23173L1069.72523 1197.01461C1069.72523 1198.6632 1069.1347 1199.91753 1067.95363 1200.77766 1066.77256 1201.63779 1065.37676 1202.33664 1063.76621 1202.87422 1062.15566 1203.4118 1061.09987 1204.00313 1060.59881 1204.64823 1058.73772 1207.01358 1056.39351 1208.78757 1053.5661 1209.97025 1050.73868 1211.15293 1047.96499 1211.74426 1045.24495 1211.74426 1043.95651 1211.74426 1042.57861 1211.58299 1041.11122 1211.26044 1039.64383 1210.93789 1038.0333 1210.34656 1036.27958 1209.48643 1034.52587 1208.6263 1032.96903 1207.53324 1031.60901 1206.2072 1030.24898 1204.88117 1029.10372 1203.08926 1028.17318 1200.83142 1027.24264 1198.57358 1026.77737 1196.04699 1026.77737 1193.25157 1026.77737 1187.58905 1028.63843 1182.89424 1032.36059 1179.16701 1036.08276 1175.43979 1041.37961 1173.5762 1048.2513 1173.5762 1049.89764 1173.5762 1053.7987 1174.25713 1059.95459 1175.619 1059.81143 1172.1068 1058.66616 1169.13223 1056.51876 1166.6952 1054.37136 1164.25816 1051.5082 1163.03967 1047.92919 1163.03967 1045.42389 1163.11134 1043.15125 1163.50556 1041.11122 1164.22234 1039.07118 1164.93911 1036.6196 1166.22929 1033.7564 1168.0929 1032.82586 1168.66632 1032.18165 1168.55881 1031.82374 1167.77035 1031.46584 1167.12526 1031.71637 1166.37266 1032.57533 1165.51253 1035.36696 1162.50207 1038.46275 1159.93964 1041.86281 1157.82516 1045.26286 1155.71067 1047.92918 1154.65344 1049.86184 1154.65344zM1059.95459 1193.89666L1059.95459 1183.46764C1054.58608 1182.3208 1050.47029 1181.8549 1047.60708 1182.06994 1044.6723 1182.21329 1042.09545 1183.21676 1039.87647 1185.08038 1037.65748 1186.94399 1036.54801 1189.59602 1036.54801 1193.03653 1036.54801 1196.04699 1037.51433 1198.51982 1039.44699 1200.45511 1041.37965 1202.39041 1043.99229 1203.35804 1047.28497 1203.35804 1049.93344 1203.35804 1052.70712 1202.37249 1055.60612 1200.40136 1058.50511 1198.43023 1059.95459 1196.26202 1059.95459 1193.89666zM1156.37252 1154.65344L1158.84202 1154.65344 1140.48182 1211.74426 1139.40812 1211.74426C1138.97864 1211.74426 1138.15548 1211.63674 1136.93862 1211.42171 1135.72176 1211.20668 1134.63018 1210.90205 1133.66384 1210.50783 1132.69751 1210.1136 1131.69541 1209.4506 1130.65749 1208.51879 1129.61958 1207.58698 1128.8859 1206.51184 1128.45642 1205.29332L1119.22263 1169.06054 1105.69405 1211.74426 1104.56667 1211.74426C1104.1014 1211.74426 1103.27824 1211.63674 1102.09717 1211.42171 1100.9161 1211.20668 1099.82452 1210.90205 1098.8224 1210.50783 1097.82028 1210.1136 1096.81817 1209.4506 1095.81605 1208.51879 1094.81393 1207.58698 1094.09814 1206.51184 1093.66865 1205.29332L1076.1674 1154.65344 1078.3148 1154.65344C1079.88956 1154.65344 1081.50009 1155.0835 1083.14643 1155.94363 1084.79277 1156.80376 1085.97383 1158.12978 1086.68963 1159.92171L1100.11083 1197.12213 1112.56571 1160.02923C1113.28151 1158.09394 1114.42678 1156.71417 1116.00154 1155.88987 1117.5763 1155.06558 1119.15104 1154.65344 1120.7258 1154.65344L1122.76583 1154.65344 1134.8986 1197.12213C1136.40178 1192.67813 1138.06599 1187.51743 1139.89128 1181.63987 1141.71658 1175.76232 1143.25553 1170.79873 1144.50818 1166.74896 1145.76083 1162.69918 1146.5303 1160.31594 1146.81662 1159.59916 1147.38927 1157.95058 1148.6419 1156.71417 1150.57456 1155.88987 1152.50723 1155.06558 1154.43986 1154.65344 1156.37252 1154.65344zM1184.07389 1154.65344C1186.79393 1154.65344 1189.26341 1155.02975 1191.48239 1155.78236 1193.70138 1156.53497 1195.79506 1157.71763 1197.76352 1159.33038 1199.73197 1160.94312 1201.25303 1163.2726 1202.32673 1166.31889 1203.40043 1169.36519 1203.93727 1173.00276 1203.93727 1177.23173L1203.93727 1197.01461C1203.93727 1198.6632 1203.34674 1199.91753 1202.16567 1200.77766 1200.9846 1201.63779 1199.58881 1202.33664 1197.97826 1202.87422 1196.3677 1203.4118 1195.31191 1204.00313 1194.81085 1204.64823 1192.94977 1207.01358 1190.60556 1208.78757 1187.77814 1209.97025 1184.95073 1211.15293 1182.17704 1211.74426 1179.45699 1211.74426 1178.16855 1211.74426 1176.79066 1211.58299 1175.32326 1211.26044 1173.85587 1210.93789 1172.24534 1210.34656 1170.49163 1209.48643 1168.73792 1208.6263 1167.18107 1207.53324 1165.82105 1206.2072 1164.46103 1204.88117 1163.31576 1203.08926 1162.38522 1200.83142 1161.45468 1198.57358 1160.98942 1196.04699 1160.98942 1193.25157 1160.98942 1187.58905 1162.85047 1182.89424 1166.57264 1179.16701 1170.2948 1175.43979 1175.59165 1173.5762 1182.46334 1173.5762 1184.10969 1173.5762 1188.01074 1174.25713 1194.16663 1175.619 1194.02347 1172.1068 1192.87821 1169.13223 1190.73081 1166.6952 1188.5834 1164.25816 1185.72024 1163.03967 1182.14124 1163.03967 1179.63593 1163.11134 1177.3633 1163.50556 1175.32326 1164.22234 1173.28323 1164.93911 1170.83165 1166.22929 1167.96844 1168.0929 1167.0379 1168.66632 1166.39369 1168.55881 1166.03579 1167.77035 1165.67789 1167.12526 1165.92842 1166.37266 1166.78738 1165.51253 1169.579 1162.50207 1172.6748 1159.93964 1176.07485 1157.82516 1179.47491 1155.71067 1182.14123 1154.65344 1184.07389 1154.65344zM1194.16663 1193.89666L1194.16663 1183.46764C1188.79813 1182.3208 1184.68233 1181.8549 1181.81913 1182.06994 1178.88434 1182.21329 1176.3075 1183.21676 1174.08851 1185.08038 1171.86953 1186.94399 1170.76005 1189.59602 1170.76005 1193.03653 1170.76005 1196.04699 1171.72637 1198.51982 1173.65903 1200.45511 1175.5917 1202.39041 1178.20433 1203.35804 1181.49702 1203.35804 1184.14548 1203.35804 1186.91917 1202.37249 1189.81816 1200.40136 1192.71716 1198.43023 1194.16663 1196.26202 1194.16663 1193.89666zM1241.40927 1154.65344C1242.48298 1154.65344 1243.84298 1154.90431 1245.48932 1155.40605 1245.41774 1155.62109 1245.32827 1155.90779 1245.2209 1156.26618 1245.11353 1156.62457 1244.82721 1157.25174 1244.36194 1158.1477 1243.89667 1159.04367 1243.37772 1159.83211 1242.80508 1160.51305 1242.23244 1161.19398 1241.46296 1161.80323 1240.49663 1162.34081 1239.5303 1162.8784 1238.43872 1163.14718 1237.22186 1163.14718 1233.78601 1163.00383 1230.97654 1164.25816 1228.79334 1166.91023 1226.61015 1169.5623 1225.51857 1172.21432 1225.51857 1174.86639L1225.51857 1203.46555C1225.51857 1204.8991 1225.17857 1206.17136 1224.49856 1207.28236 1223.81855 1208.39336 1223.01328 1209.21764 1222.08274 1209.75522 1221.1522 1210.2928 1220.20378 1210.72286 1219.23744 1211.04541 1218.27111 1211.36796 1217.43006 1211.56507 1216.71426 1211.63674L1215.74793 1211.74426 1215.74793 1169.92067C1215.74793 1168.5588 1216.35635 1167.48365 1217.57322 1166.6952 1218.79008 1165.90675 1220.18587 1165.2079 1221.76063 1164.59864 1223.33539 1163.98938 1224.37329 1163.39805 1224.87435 1162.82463 1226.80701 1159.88586 1229.09754 1157.78932 1231.74601 1156.53497 1234.39447 1155.28061 1237.61553 1154.65344 1241.40927 1154.65344zM1291.33616 1162.82463C1291.69406 1163.32638 1292.66037 1163.86395 1294.23514 1164.43737 1295.8099 1165.01079 1297.24148 1165.72755 1298.52992 1166.58768 1299.81836 1167.44781 1300.46257 1168.52296 1300.46257 1169.81315L1300.46257 1207.8737C1300.46257 1211.60092 1299.90784 1214.98763 1298.79835 1218.03392 1297.68885 1221.08022 1296.25727 1223.57097 1294.50356 1225.50626 1292.74985 1227.44155 1290.74563 1229.07219 1288.49086 1230.39823 1286.23609 1231.72426 1284.01714 1232.65605 1281.83394 1233.19363 1279.65075 1233.73121 1277.52127 1234 1275.44545 1234 1274.15701 1234 1272.49279 1233.5341 1270.45276 1232.6023 1268.41273 1231.67049 1266.26536 1230.38031 1264.01058 1228.73173 1261.75581 1227.08315 1259.7337 1225.29124 1257.9442 1223.35595 1256.79892 1222.20911 1256.69155 1221.31316 1257.62209 1220.66806 1258.12315 1220.30967 1258.69578 1220.30967 1259.34 1220.66806 1262.06005 1222.46 1264.52953 1223.69641 1266.74851 1224.37735 1268.96749 1225.05828 1271.40118 1225.39875 1274.04964 1225.39875 1275.12335 1225.39875 1276.32229 1225.25539 1277.64653 1224.96868 1278.97076 1224.68197 1280.42023 1224.1444 1281.995 1223.35595 1283.56976 1222.5675 1284.98345 1221.58195 1286.2361 1220.39927 1287.48875 1219.21659 1288.52665 1217.62179 1289.34982 1215.61482 1290.17299 1213.60785 1290.58457 1211.35005 1290.58457 1208.84134L1290.58457 1205.40084C1288.15084 1207.83787 1285.86031 1209.50434 1283.71291 1210.40031 1281.56551 1211.29628 1279.09603 1211.74426 1276.30441 1211.74426 1268.93165 1211.74426 1262.66849 1209.00264 1257.51472 1203.51931 1252.36095 1198.03599 1249.78411 1191.388 1249.78411 1183.57516 1249.78411 1175.97735 1252.30727 1169.25768 1257.35367 1163.41597 1262.40006 1157.57426 1268.00112 1154.65344 1274.15701 1154.65344 1276.7339 1154.65344 1278.98864 1154.86847 1280.9213 1155.29854 1282.85396 1155.7286 1284.71502 1156.55288 1286.50452 1157.7714 1288.29402 1158.98992 1289.90455 1160.67431 1291.33616 1162.82463zM1290.58457 1188.62839L1290.58457 1177.33925C1290.58457 1175.40396 1290.10141 1173.39702 1289.13508 1171.31837 1288.16875 1169.23973 1286.52243 1167.35822 1284.19607 1165.6738 1281.86972 1163.98938 1279.16761 1163.14718 1276.08967 1163.14718 1271.58012 1163.14718 1267.69696 1165.18996 1264.44006 1169.27557 1261.18317 1173.36119 1259.55474 1178.12767 1259.55474 1183.57516 1259.55474 1189.02264 1261.18317 1193.68161 1264.44006 1197.55219 1267.69696 1201.42278 1271.6517 1203.35804 1276.30441 1203.35804 1279.74025 1203.35804 1282.9792 1201.99619 1286.02136 1199.27244 1289.06351 1196.5487 1290.58457 1193.00072 1290.58457 1188.62839zM1332.13662 1154.65344C1334.85666 1154.65344 1337.32614 1155.02975 1339.54512 1155.78236 1341.76411 1156.53497 1343.85779 1157.71763 1345.82625 1159.33038 1347.7947 1160.94312 1349.31575 1163.2726 1350.38946 1166.31889 1351.46316 1169.36519 1352 1173.00276 1352 1177.23173L1352 1197.01461C1352 1198.6632 1351.40947 1199.91753 1350.2284 1200.77766 1349.04733 1201.63779 1347.65154 1202.33664 1346.04099 1202.87422 1344.43043 1203.4118 1343.37464 1204.00313 1342.87358 1204.64823 1341.0125 1207.01358 1338.66828 1208.78757 1335.84087 1209.97025 1333.01346 1211.15293 1330.23977 1211.74426 1327.51972 1211.74426 1326.23128 1211.74426 1324.85338 1211.58299 1323.38599 1211.26044 1321.9186 1210.93789 1320.30807 1210.34656 1318.55436 1209.48643 1316.80065 1208.6263 1315.2438 1207.53324 1313.88378 1206.2072 1312.52376 1204.88117 1311.37849 1203.08926 1310.44795 1200.83142 1309.51741 1198.57358 1309.05215 1196.04699 1309.05215 1193.25157 1309.05215 1187.58905 1310.9132 1182.89424 1314.63537 1179.16701 1318.35753 1175.43979 1323.65438 1173.5762 1330.52607 1173.5762 1332.17242 1173.5762 1336.07347 1174.25713 1342.22936 1175.619 1342.0862 1172.1068 1340.94094 1169.13223 1338.79353 1166.6952 1336.64613 1164.25816 1333.78297 1163.03967 1330.20396 1163.03967 1327.69866 1163.11134 1325.42603 1163.50556 1323.38599 1164.22234 1321.34596 1164.93911 1318.89438 1166.22929 1316.03117 1168.0929 1315.10063 1168.66632 1314.45642 1168.55881 1314.09852 1167.77035 1313.74062 1167.12526 1313.99114 1166.37266 1314.85011 1165.51253 1317.64173 1162.50207 1320.73752 1159.93964 1324.13758 1157.82516 1327.53763 1155.71067 1330.20395 1154.65344 1332.13662 1154.65344zM1342.22936 1193.89666L1342.22936 1183.46764C1336.86085 1182.3208 1332.74506 1181.8549 1329.88185 1182.06994 1326.94707 1182.21329 1324.37022 1183.21676 1322.15124 1185.08038 1319.93226 1186.94399 1318.82278 1189.59602 1318.82278 1193.03653 1318.82278 1196.04699 1319.7891 1198.51982 1321.72176 1200.45511 1323.65443 1202.39041 1326.26706 1203.35804 1329.55975 1203.35804 1332.20821 1203.35804 1334.9819 1202.37249 1337.88089 1200.40136 1340.77989 1198.43023 1342.22936 1196.26202 1342.22936 1193.89666z"/>
  </g>
</svg>
