<svg xmlns="http://www.w3.org/2000/svg" width="315" height="315" viewBox="0 0 315 315">
  <defs>
    <radialGradient id="logo-koperasi-a" cx="19.314%" cy="88.595%" r="211.977%" fx="19.314%" fy="88.595%" gradientTransform="matrix(.56052 -.54492 .82814 .36882 -.649 .664)">
      <stop offset="0%" stop-color="#9CEBEE"/>
      <stop offset="100%" stop-color="#14AA76"/>
    </radialGradient>
  </defs>
  <g fill="none" fill-rule="evenodd" transform="translate(10 10)">
    <circle cx="147.5" cy="147.5" r="147.5" stroke="#979797" stroke-width="19" opacity=".151"/>
    <path fill="url(#logo-koperasi-a)" d="M113.363842,138.824737 C109.03414,133.26201 112.22282,104.308413 105.228977,79.1584537 C102.70313,69.537508 115.848238,59.8427491 121.008458,76.6939973 C125.226243,90.0315874 125.226243,112.259523 131.120515,112.259523 C135.41178,112.259523 134.877821,88.9567771 133.455313,64.977661 C132.34293,55.124731 148.307808,48.7865888 150.169316,65.7726591 C150.694875,79.9666327 149.005309,110.112162 155.165995,112.259523 C158.558159,112.767177 160.901624,99.0718192 161.571616,79.1584537 C160.82023,71.6833626 174.744986,64.977661 176.056709,79.9666327 C176.965984,83.9468956 173.036846,109.288919 173.766753,117.148517 C174.251724,121.757322 179.203184,120.075436 184.371318,103.173347 C187.482372,94.8686104 198.672143,97.7488309 195.647005,108.531958 C191.792478,122.037134 189.873693,123.258441 186.348133,141.167176 C185.054498,155.398809 185.054498,174.052078 174.744986,183.445935 C168.80022,190.417515 139.055663,202.224611 123.640193,184.856671 C121.602332,182.036706 116.209989,175.166808 127.987605,166.967896 C141.656498,158.833382 163.710466,156.576054 164.631422,143.464423 C164.631422,141.167176 163.710466,133.148397 140.837661,139.833643 C132.370062,142.13089 118.866217,146.582276 113.363842,138.824737 Z"/>
    <path fill="#848484" d="M92.2237933 204.75823C93.296455 205.173458 94.062642 206.173083 94.062642 207.403389 94.062642 209.033546 92.7601242 210.340747 91.1358078 210.340747L86.5080386 210.340747 86.5080386 199.575563 90.7833618 199.575563C92.3463832 199.575563 93.6029298 200.852006 93.6029298 202.405268 93.6029298 203.451029 93.0512752 204.312244 92.2237933 204.75823zM90.7833618 200.344504L87.3201968 200.344504 87.3201968 204.466032 90.7833618 204.466032C91.886671 204.466032 92.7907716 203.543302 92.7907716 202.405268 92.7907716 201.267234 91.886671 200.344504 90.7833618 200.344504zM91.1358078 209.571805C92.300412 209.571805 93.2504838 208.602939 93.2504838 207.403389 93.2504838 206.20384 92.300412 205.234974 91.1358078 205.234974L87.3201968 205.234974 87.3201968 209.571805 91.1358078 209.571805zM99.349332 202.482162C101.67854 202.482162 103.134296 204.419896 103.134296 206.526796 103.134296 206.649827 103.118972 206.772857 103.118972 206.895888L96.177318 206.895888C96.3612029 208.633696 97.6790444 209.77173 99.4259507 209.77173 100.682497 209.77173 101.632569 209.187334 102.076958 208.372256L102.751202 208.772106C102.122929 209.817866 100.927677 210.509914 99.410627 210.509914 97.0507711 210.509914 95.3804836 208.818242 95.3804836 206.496038 95.3804836 204.23535 97.0047999 202.482162 99.349332 202.482162zM99.349332 203.220346C97.6024257 203.220346 96.3305554 204.435274 96.177318 206.142325L102.337461 206.142325C102.1689 204.266107 100.851058 203.220346 99.349332 203.220346zM105.69336 204.158455C106.214367 202.943527 107.21041 202.543678 108.252424 202.543678L108.252424 203.281862C106.934583 203.281862 105.69336 204.09694 105.69336 206.065431L105.69336 210.340747 104.927173 210.340747 104.927173 202.65133 105.69336 202.65133 105.69336 204.158455zM115.669114 210.340747L114.6271 210.340747 110.566309 206.557554 110.566309 210.340747 109.800122 210.340747 109.800122 199.575563 110.566309 199.575563 110.566309 206.142325 114.443215 202.65133 115.515877 202.65133 111.393791 206.34225 115.669114 210.340747zM123.943933 202.65133L124.725444 202.65133 124.725444 210.340747 123.943933 210.340747 123.943933 208.602939C123.300336 209.756351 122.120408 210.509914 120.649329 210.509914 118.473358 210.509914 116.680481 208.772106 116.680481 206.496038 116.680481 204.219971 118.473358 202.482162 120.649329 202.482162 122.120408 202.482162 123.300336 203.235725 123.943933 204.389138L123.943933 202.65133zM120.710624 209.77173C122.534149 209.77173 123.943933 208.32612 123.943933 206.496038 123.943933 204.665957 122.534149 203.220346 120.710624 203.220346 118.887099 203.220346 117.461992 204.665957 117.461992 206.496038 117.461992 208.32612 118.887099 209.77173 120.710624 209.77173zM127.851487 204.158455C128.372494 202.943527 129.368537 202.543678 130.410551 202.543678L130.410551 203.281862C129.09271 203.281862 127.851487 204.09694 127.851487 206.065431L127.851487 210.340747 127.0853 210.340747 127.0853 202.65133 127.851487 202.65133 127.851487 204.158455zM137.566737 202.65133L138.394219 202.65133 135.084292 211.048173C134.50199 212.524541 133.368033 213.524166 132.050191 213.416514L132.050191 212.693708C133.076882 212.785981 133.858393 212.01704 134.333428 210.894385L134.50199 210.479156 130.97753 202.65133 131.805012 202.65133 134.900407 209.494911 137.566737 202.65133zM146.515801 202.65133L147.297312 202.65133 147.297312 210.340747 146.515801 210.340747 146.515801 208.602939C145.872204 209.756351 144.692276 210.509914 143.221197 210.509914 141.045226 210.509914 139.252349 208.772106 139.252349 206.496038 139.252349 204.219971 141.045226 202.482162 143.221197 202.482162 144.692276 202.482162 145.872204 203.235725 146.515801 204.389138L146.515801 202.65133zM143.282492 209.77173C145.106017 209.77173 146.515801 208.32612 146.515801 206.496038 146.515801 204.665957 145.106017 203.220346 143.282492 203.220346 141.458967 203.220346 140.033859 204.665957 140.033859 206.496038 140.033859 208.32612 141.458967 209.77173 143.282492 209.77173zM159.617598 204.75823C160.69026 205.173458 161.456447 206.173083 161.456447 207.403389 161.456447 209.033546 160.153929 210.340747 158.529613 210.340747L153.901843 210.340747 153.901843 199.575563 158.177167 199.575563C159.740188 199.575563 160.996735 200.852006 160.996735 202.405268 160.996735 203.451029 160.44508 204.312244 159.617598 204.75823zM158.177167 200.344504L154.714002 200.344504 154.714002 204.466032 158.177167 204.466032C159.280476 204.466032 160.184576 203.543302 160.184576 202.405268 160.184576 201.267234 159.280476 200.344504 158.177167 200.344504zM158.529613 209.571805C159.694217 209.571805 160.644289 208.602939 160.644289 207.403389 160.644289 206.20384 159.694217 205.234974 158.529613 205.234974L154.714002 205.234974 154.714002 209.571805 158.529613 209.571805zM166.743137 202.482162C169.072345 202.482162 170.5281 204.419896 170.5281 206.526796 170.5281 206.649827 170.512777 206.772857 170.512777 206.895888L163.571123 206.895888C163.755008 208.633696 165.072849 209.77173 166.819755 209.77173 168.076302 209.77173 169.026374 209.187334 169.470762 208.372256L170.145007 208.772106C169.516734 209.817866 168.321482 210.509914 166.804432 210.509914 164.444576 210.509914 162.774288 208.818242 162.774288 206.496038 162.774288 204.23535 164.398605 202.482162 166.743137 202.482162zM166.743137 203.220346C164.996231 203.220346 163.72436 204.435274 163.571123 206.142325L169.731266 206.142325C169.562705 204.266107 168.244863 203.220346 166.743137 203.220346zM173.087165 204.158455C173.608172 202.943527 174.604215 202.543678 175.646229 202.543678L175.646229 203.281862C174.328388 203.281862 173.087165 204.09694 173.087165 206.065431L173.087165 210.340747 172.320978 210.340747 172.320978 202.65133 173.087165 202.65133 173.087165 204.158455zM177.714934 204.665957C177.714934 206.726721 182.358027 205.511793 182.358027 208.32612 182.358027 209.587184 181.254718 210.509914 179.615078 210.509914 178.082704 210.509914 177.071337 209.787109 176.703567 208.802863L177.362488 208.418393C177.638315 209.24885 178.465797 209.77173 179.615078 209.77173 180.687739 209.77173 181.59184 209.294986 181.59184 208.32612 181.59184 206.234598 176.948747 207.434147 176.948747 204.665957 176.948747 203.451029 177.990761 202.482162 179.553783 202.482162 180.795006 202.482162 181.745077 203.081937 182.158818 204.020046L181.515221 204.389138C181.193423 203.589438 180.396588 203.220346 179.553783 203.220346 178.55774 203.220346 177.714934 203.743227 177.714934 204.665957zM190.954645 202.65133L191.736155 202.65133 191.736155 210.340747 190.954645 210.340747 190.954645 208.602939C190.311048 209.756351 189.13112 210.509914 187.660041 210.509914 185.48407 210.509914 183.691192 208.772106 183.691192 206.496038 183.691192 204.219971 185.48407 202.482162 187.660041 202.482162 189.13112 202.482162 190.311048 203.235725 190.954645 204.389138L190.954645 202.65133zM187.721336 209.77173C189.544861 209.77173 190.954645 208.32612 190.954645 206.496038 190.954645 204.665957 189.544861 203.220346 187.721336 203.220346 185.897811 203.220346 184.472703 204.665957 184.472703 206.496038 184.472703 208.32612 185.897811 209.77173 187.721336 209.77173zM202.278888 202.482162C203.903204 202.482162 205.067808 203.543302 205.067808 205.465656L205.067808 210.340747 204.301621 210.340747 204.301621 205.465656C204.301621 204.004667 203.458816 203.220346 202.263564 203.220346 200.97637 203.220346 199.965003 204.081561 199.965003 206.050052L199.965003 210.340747 199.198816 210.340747 199.198816 205.465656C199.198816 204.004667 198.417306 203.220346 197.237378 203.220346 195.980831 203.220346 194.862198 204.081561 194.862198 206.050052L194.862198 210.340747 194.096011 210.340747 194.096011 202.65133 194.862198 202.65133 194.862198 203.973909C195.429177 202.91277 196.348601 202.482162 197.32932 202.482162 198.447953 202.482162 199.321406 203.0358 199.719823 204.050804 200.271478 202.974285 201.252197 202.482162 202.278888 202.482162zM213.970901 202.65133L214.752412 202.65133 214.752412 210.340747 213.970901 210.340747 213.970901 208.602939C213.327304 209.756351 212.147376 210.509914 210.676297 210.509914 208.500326 210.509914 206.707449 208.772106 206.707449 206.496038 206.707449 204.219971 208.500326 202.482162 210.676297 202.482162 212.147376 202.482162 213.327304 203.235725 213.970901 204.389138L213.970901 202.65133zM210.737592 209.77173C212.561117 209.77173 213.970901 208.32612 213.970901 206.496038 213.970901 204.665957 212.561117 203.220346 210.737592 203.220346 208.914067 203.220346 207.488959 204.665957 207.488959 206.496038 207.488959 208.32612 208.914067 209.77173 210.737592 209.77173zM49.1103351 222.231921L54.8340689 229.880744 54.2841016 229.880744C53.7273418 229.880744 53.2384868 229.816154 52.8175221 229.686973 52.3965574 229.557793 52.0434955 229.289237 51.7583258 228.881297L47.9289239 223.761685 46.6252977 225.434228 46.6252977 228.41217C46.6252977 228.588943 46.5913494 228.755516 46.5234519 228.911893 46.4555543 229.068269 46.3672889 229.194049 46.2586528 229.289235 46.1500167 229.384421 46.0311978 229.469407 45.9021925 229.544195 45.7731872 229.618984 45.640789 229.676775 45.5049939 229.717569 45.3691988 229.758363 45.2469851 229.788958 45.138349 229.809355 45.029713 229.829752 44.9414475 229.846749 44.87355 229.860347L44.7717042 229.860347 44.7717042 216.867546C44.7717042 216.677175 44.8056524 216.507202 44.87355 216.357625 44.9414475 216.208047 45.029713 216.082268 45.138349 215.980283 45.2469851 215.878298 45.3691988 215.789912 45.5049939 215.715124 45.640789 215.640335 45.7731872 215.585944 45.9021925 215.551949 46.0311978 215.517954 46.1500167 215.487359 46.2586528 215.460163 46.3672889 215.432967 46.4555543 215.419369 46.5234519 215.419369L46.6252977 215.398972 46.6252977 222.82343 51.778695 216.174053C52.1996597 215.65733 52.9125732 215.398972 53.9174567 215.398972L54.4063165 215.398972 49.1103351 222.231921zM57.1154147 220.640966C58.0931393 219.580323 59.2779335 219.05001 60.669833 219.05001 62.0617325 219.05001 63.2465268 219.580323 64.2242513 220.640966 65.2019759 221.701608 65.6908308 222.979798 65.6908308 224.475575 65.6908308 225.971353 65.2019759 227.246144 64.2242513 228.299987 63.2465268 229.35383 62.0617325 229.880744 60.669833 229.880744 59.2779335 229.880744 58.0931393 229.35383 57.1154147 228.299987 56.1376902 227.246144 55.6488352 225.971353 55.6488352 224.475575 55.6488352 222.979798 56.1376902 221.701608 57.1154147 220.640966zM58.4190409 227.167961C59.0436983 227.902252 59.7939548 228.269392 60.669833 228.269392 61.5457112 228.269392 62.292573 227.898852 62.9104405 227.157763 63.5283081 226.416673 63.8372373 225.52262 63.8372373 224.475575 63.8372373 223.428531 63.5283081 222.534478 62.9104405 221.793388 62.292573 221.052299 61.5457112 220.681759 60.669833 220.681759 59.7939548 220.681759 59.0470931 221.052299 58.4292255 221.793388 57.8113579 222.534478 57.5024287 223.428531 57.5024287 224.475575 57.5024287 225.52262 57.8079631 226.420072 58.4190409 227.167961zM72.7385599 219.05001C73.9063975 219.05001 74.9689781 219.583723 75.9263333 220.651164 76.8836886 221.718605 77.3623591 222.966201 77.3623591 224.393988 77.3623591 225.930559 76.9074524 227.229146 75.9976254 228.289788 75.0877984 229.350431 73.8656611 229.880744 72.3311767 229.880744 71.8015759 229.880744 71.3330899 229.795758 70.9257047 229.625783 70.5183195 229.455808 70.0769921 229.132861 69.6017094 228.656932L69.6017094 232.552732C69.6017094 232.824692 69.5406025 233.062653 69.4183869 233.266623 69.2961714 233.470592 69.1434042 233.623567 68.9600809 233.725552 68.7767575 233.827537 68.5934369 233.909123 68.4101136 233.970314 68.2267902 234.031505 68.0672334 234.068899 67.9314383 234.082497L67.7481159 234.102894 67.7481159 221.925968C67.7481159 221.681204 67.8703296 221.477238 68.1147607 221.314062 68.3591919 221.150886 68.630778 221.014909 68.9295271 220.906125 69.2282763 220.797341 69.4115969 220.695358 69.4794944 220.600172 69.8733001 220.001861 70.324812 219.593928 70.8340435 219.37636 71.343275 219.158793 71.9781075 219.05001 72.7385599 219.05001zM72.3311767 228.289788C73.2817422 228.289788 74.0455781 227.91245 74.6227071 227.157763 75.1998362 226.403075 75.4883964 225.481826 75.4883964 224.393988 75.4883964 223.37414 75.1828621 222.497084 74.5717842 221.762793 73.9607064 221.028502 73.2206344 220.661362 72.3515459 220.661362 71.9170016 220.661362 71.5130174 220.759946 71.1395809 220.957117 70.7661444 221.154288 70.4741894 221.395648 70.263707 221.681205 70.0532247 221.966763 69.890273 222.255716 69.7748472 222.548072 69.6594214 222.840429 69.6017094 223.095387 69.6017094 223.312954L69.6017094 225.495419C69.6017094 226.311297 69.8936644 226.980987 70.4775832 227.504509 71.061502 228.028031 71.6793604 228.289788 72.3311767 228.289788zM88.5653967 223.374145C88.6468737 223.850074 88.4703428 224.261407 88.0357985 224.608155 87.6012543 224.954903 87.2481924 225.141873 86.9766023 225.169069L81.0695461 225.760578C81.3275567 226.508466 81.7349358 227.113567 82.2916956 227.575898 82.8484554 228.03823 83.4595241 228.276191 84.12492 228.289788 84.6002027 228.289788 85.0313456 228.2184 85.4183616 228.075621 85.8053775 227.932843 86.263679 227.691482 86.7932798 227.351533 86.9698134 227.242749 87.0988168 227.263146 87.1802938 227.412723 87.2346119 227.535105 87.1870843 227.677882 87.0377097 227.841058 86.4945294 228.398575 85.9038297 228.877896 85.2655929 229.279036 84.627356 229.680177 84.1181321 229.880744 83.7379059 229.880744 83.5070543 229.880744 83.2218889 229.836551 82.8824012 229.748164 82.5429136 229.659777 82.1389293 229.489805 81.6704363 229.238243 81.2019433 228.98668 80.7741952 228.673931 80.3871792 228.299987 80.0001633 227.926043 79.6708651 227.409327 79.399275 226.749825 79.1276848 226.090324 78.9918918 225.359443 78.9918918 224.557163 78.9918918 223.074984 79.5045105 221.789994 80.5297633 220.702156 81.5550161 219.614318 82.7601794 219.070407 84.1452891 219.070407 84.810685 219.070407 85.4115692 219.185988 85.9479597 219.417154 86.4843503 219.648319 86.9222828 219.971267 87.2617705 220.386005 87.6012582 220.800743 87.8796339 221.256268 88.096906 221.752594 88.3141781 222.248921 88.4703401 222.789432 88.5653967 223.374145zM80.8454853 224.190019L86.6303265 223.578114C86.6303265 222.653451 86.3146077 221.908973 85.6831606 221.344657 85.0517135 220.780341 84.3286156 220.566176 83.5138452 220.702156 82.7805518 220.824538 82.1592986 221.225672 81.6500671 221.905571 81.1408356 222.58547 80.8726443 223.346945 80.8454853 224.190019zM95.2872193 219.05001C95.4909119 219.05001 95.7489186 219.097603 96.0612473 219.192788 96.0476678 219.233582 96.0306937 219.287973 96.0103244 219.355963 95.9899551 219.423953 95.9356379 219.542934 95.8473711 219.712908 95.7591043 219.882883 95.6606544 220.032459 95.5520183 220.161639 95.4433823 220.29082 95.2974047 220.406401 95.1140814 220.508386 94.930758 220.610371 94.7236737 220.661362 94.492822 220.661362 93.8410057 220.634166 93.308018 220.872127 92.893843 221.375253 92.4796681 221.878378 92.2725837 222.381495 92.2725837 222.88462L92.2725837 228.310185C92.2725837 228.582145 92.208082 228.823505 92.0790767 229.034274 91.9500713 229.245043 91.7973042 229.401417 91.6207706 229.503402 91.444237 229.605387 91.2643112 229.686973 91.0809879 229.748164 90.8976645 229.809355 90.7381077 229.846749 90.6023126 229.860347L90.4189902 229.880744 90.4189902 221.946365C90.4189902 221.688003 90.5344143 221.484037 90.7652659 221.334459 90.9961175 221.184881 91.2609139 221.052303 91.5596631 220.93672 91.8584123 220.821137 92.0553122 220.708956 92.1503687 220.600172 92.5170154 220.042655 92.9515531 219.64492 93.4539949 219.406955 93.9564367 219.168991 94.5675054 219.05001 95.2872193 219.05001zM100.848 219.05001C101.364021 219.05001 101.832507 219.121399 102.253472 219.264177 102.674436 219.406956 103.071631 219.631319 103.445068 219.937274 103.818504 220.243228 104.107064 220.685156 104.310757 221.26307 104.514449 221.840984 104.616294 222.531071 104.616294 223.333351L104.616294 227.086374C104.616294 227.399127 104.504265 227.637088 104.280203 227.800264 104.056141 227.96344 103.791345 228.096018 103.485806 228.198003 103.180267 228.299987 102.979972 228.412169 102.884916 228.534551 102.531848 228.983284 102.087126 229.319829 101.550736 229.544195 101.014345 229.768562 100.488147 229.880744 99.9721259 229.880744 99.7276948 229.880744 99.4662932 229.850149 99.1879133 229.788958 98.9095334 229.727767 98.603999 229.615585 98.2713011 229.45241 97.9386032 229.289234 97.6432533 229.081868 97.3852427 228.830305 97.127232 228.578743 96.9099632 228.238798 96.7334296 227.810462 96.556896 227.382126 96.4686305 226.902805 96.4686305 226.372484 96.4686305 225.298243 96.8216924 224.407589 97.5278268 223.700495 98.2339612 222.9934 99.2388296 222.639858 100.542462 222.639858 100.854791 222.639858 101.594863 222.769037 102.762701 223.027398 102.735542 222.361098 102.518273 221.79679 102.110888 221.334459 101.703502 220.872128 101.16033 220.640966 100.481355 220.640966 100.006072 220.654564 99.5749292 220.729351 99.1879133 220.865331 98.8008973 221.001311 98.3358061 221.246071 97.7926258 221.599618 97.6160923 221.708402 97.4938785 221.688005 97.425981 221.538427 97.3580834 221.416046 97.405611 221.273269 97.5685651 221.110093 98.0981659 220.538978 98.6854708 220.052858 99.3304974 219.651718 99.975524 219.250578 100.481353 219.05001 100.848 219.05001zM102.762701 226.494865L102.762701 224.516369C101.744238 224.298802 100.963428 224.210416 100.420247 224.25121 99.8634876 224.278406 99.3746327 224.468775 98.9536679 224.822322 98.5327032 225.175869 98.322224 225.678987 98.322224 226.33169 98.322224 226.902805 98.5055446 227.371928 98.8721913 227.739073 99.238838 228.106219 99.7344826 228.289788 100.35914 228.289788 100.861582 228.289788 101.38778 228.102819 101.93775 227.728875 102.48772 227.35493 102.762701 226.943598 102.762701 226.494865zM109.932645 223.374145C110.89679 223.754888 111.633467 224.203615 112.142699 224.720338 112.65193 225.237061 112.906542 225.916949 112.906542 226.760024 112.906542 227.739078 112.533111 228.503953 111.786238 229.054671 111.039365 229.605389 110.014128 229.880744 108.710495 229.880744 108.384587 229.880744 107.970418 229.833151 107.467977 229.737966 106.965535 229.64278 106.558156 229.500003 106.245827 229.309632 106.245827 229.282436 106.256011 229.245042 106.276381 229.197449 106.29675 229.149856 106.334093 229.06147 106.388411 228.93229 106.442729 228.803109 106.507231 228.690927 106.581918 228.595741 106.656605 228.500556 106.761845 228.415569 106.89764 228.340781 107.033435 228.265992 107.182807 228.228598 107.345762 228.228598 107.481557 228.228598 107.719194 228.255793 108.058682 228.310185 108.39817 228.364577 108.805549 228.378175 109.280832 228.350979 109.674637 228.323783 110.078622 228.177607 110.492797 227.912447 110.906972 227.647286 111.114056 227.31754 111.114056 226.923199 111.114056 226.501662 110.971473 226.158318 110.686304 225.893157 110.401134 225.627997 109.905489 225.359441 109.199355 225.087481 107.42044 224.461974 106.530995 223.455739 106.530995 222.068746 106.530995 221.225671 106.850109 220.511788 107.488346 219.927075 108.126583 219.342362 108.982079 219.05001 110.05486 219.05001 110.353609 219.05001 110.730435 219.104401 111.185348 219.213185 111.640262 219.321969 112.017087 219.430751 112.315836 219.539535 112.614586 219.648319 112.763958 219.709509 112.763958 219.723107 112.750378 219.791097 112.72322 219.869284 112.682481 219.957671 112.641743 220.046058 112.580636 220.137843 112.499159 220.233028 112.417682 220.328214 112.312442 220.4166 112.183437 220.498188 112.054432 220.579775 111.915244 220.647764 111.765869 220.702156 111.548597 220.74295 111.368671 220.759947 111.226086 220.753148 111.083502 220.746349 110.873022 220.725953 110.594642 220.691958 110.316263 220.657963 110.095599 220.640966 109.932645 220.640966 109.52526 220.640966 109.151829 220.756547 108.812341 220.987712 108.472853 221.218878 108.303112 221.51123 108.303112 221.864777 108.303112 222.204727 108.411746 222.480081 108.629019 222.69085 108.846291 222.901619 109.280828 223.129381 109.932645 223.374145zM116.532252 217.479452C116.355719 217.656226 116.13845 217.744611 115.880439 217.744611 115.622429 217.744611 115.401765 217.652826 115.218442 217.469254 115.035118 217.285681 114.943458 217.064717 114.943458 216.806356 114.943458 216.547994 115.035118 216.32703 115.218442 216.143458 115.401765 215.959885 115.622429 215.8681 115.880439 215.8681 116.13845 215.8681 116.355719 215.959885 116.532252 216.143458 116.708786 216.32703 116.797051 216.547994 116.797051 216.806356 116.797051 217.064717 116.708786 217.28908 116.532252 217.479452zM114.943458 220.620569C114.943458 219.845484 115.425523 219.349165 116.389668 219.131598 116.579781 219.077206 116.715574 219.05001 116.797051 219.05001L116.797051 228.310185C116.797051 228.582145 116.73255 228.823505 116.603544 229.034274 116.474539 229.245043 116.321772 229.401417 116.145238 229.503402 115.968705 229.605387 115.788779 229.686973 115.605456 229.748164 115.422132 229.809355 115.262575 229.846749 115.12678 229.860347L114.943458 229.880744 114.943458 220.620569zM137.838393 229.880744L137.308795 229.880744C136.928569 229.880744 136.555138 229.802556 136.188491 229.64618 135.821844 229.489803 135.577417 229.241644 135.455201 228.901694L134.314528 225.556609 129.059285 225.556609 127.918612 228.901694C127.782817 229.26884 127.534995 229.523798 127.175138 229.666577 126.815281 229.809355 126.452035 229.880744 126.085388 229.880744L125.820589 229.880744 130.546234 216.765562C130.695609 216.344025 130.919667 216.010879 131.218416 215.766116 131.517165 215.521352 131.863438 215.398972 132.257243 215.398972L132.644257 215.398972 137.838393 229.880744zM131.686907 217.887389L129.609253 223.965654 133.764561 223.965654 131.686907 217.887389zM146.536024 220.600172C146.603922 220.695358 146.787242 220.797341 147.085991 220.906125 147.384741 221.014909 147.656327 221.150886 147.900758 221.314062 148.145189 221.477238 148.267403 221.681204 148.267403 221.925968L148.267403 229.146457C148.267403 229.853551 148.162163 230.496046 147.951681 231.07396 147.741198 231.651874 147.469612 232.124397 147.136914 232.491542 146.804216 232.858687 146.423996 233.168036 145.996241 233.419599 145.568487 233.671162 145.147528 233.847933 144.733353 233.949917 144.319178 234.051902 143.915194 234.102894 143.521388 234.102894 143.276957 234.102894 142.961239 234.014508 142.574223 233.837735 142.187207 233.660961 141.779828 233.416201 141.352073 233.103448 140.924319 232.790694 140.540703 232.45075 140.201216 232.083605 139.983943 231.866037 139.963574 231.696065 140.140108 231.573683 140.235165 231.505693 140.343799 231.505693 140.466015 231.573683 140.982036 231.913632 141.450522 232.148194 141.871487 232.277375 142.292451 232.406556 142.754148 232.471145 143.256589 232.471145 143.460282 232.471145 143.687735 232.443949 143.938956 232.389558 144.190177 232.335166 144.465158 232.233182 144.763907 232.083605 145.062656 231.934027 145.330848 231.747058 145.568489 231.522691 145.80613 231.298324 146.00303 230.995774 146.159195 230.615031 146.315359 230.234287 146.39344 229.805958 146.39344 229.330028L146.39344 228.677329C145.931737 229.13966 145.497199 229.455808 145.089814 229.625783 144.682429 229.795758 144.213943 229.880744 143.684342 229.880744 142.285652 229.880744 141.097463 229.360629 140.119739 228.320384 139.142014 227.280139 138.653159 226.018945 138.653159 224.536766 138.653159 223.095381 139.13183 221.82059 140.089185 220.712355 141.04654 219.60412 142.109121 219.05001 143.276959 219.05001 143.765821 219.05001 144.193569 219.090804 144.560216 219.172392 144.926862 219.253979 145.279924 219.410354 145.619412 219.641519 145.9589 219.872685 146.264434 220.192233 146.536024 220.600172zM146.39344 225.495419L146.39344 223.353748C146.39344 222.986603 146.30178 222.605865 146.118456 222.211524 145.935133 221.817183 145.622809 221.460241 145.181475 221.140689 144.740141 220.821136 144.227522 220.661362 143.643603 220.661362 142.788094 220.661362 142.051417 221.048899 141.43355 221.823984 140.815682 222.599068 140.506753 223.50332 140.506753 224.536766 140.506753 225.570212 140.815682 226.454067 141.43355 227.188358 142.051417 227.922649 142.801674 228.289788 143.684342 228.289788 144.336158 228.289788 144.950622 228.031431 145.527751 227.514708 146.10488 226.997985 146.39344 226.324895 146.39344 225.495419zM155.376239 219.05001C155.579932 219.05001 155.837939 219.097603 156.150267 219.192788 156.136688 219.233582 156.119714 219.287973 156.099344 219.355963 156.078975 219.423953 156.024658 219.542934 155.936391 219.712908 155.848124 219.882883 155.749674 220.032459 155.641038 220.161639 155.532402 220.29082 155.386425 220.406401 155.203101 220.508386 155.019778 220.610371 154.812694 220.661362 154.581842 220.661362 153.930026 220.634166 153.397038 220.872127 152.982863 221.375253 152.568688 221.878378 152.361604 222.381495 152.361604 222.88462L152.361604 228.310185C152.361604 228.582145 152.297102 228.823505 152.168097 229.034274 152.039091 229.245043 151.886324 229.401417 151.709791 229.503402 151.533257 229.605387 151.353331 229.686973 151.170008 229.748164 150.986684 229.809355 150.827128 229.846749 150.691333 229.860347L150.50801 229.880744 150.50801 221.946365C150.50801 221.688003 150.623434 221.484037 150.854286 221.334459 151.085137 221.184881 151.349934 221.052303 151.648683 220.93672 151.947432 220.821137 152.144332 220.708956 152.239389 220.600172 152.606035 220.042655 153.040573 219.64492 153.543015 219.406955 154.045457 219.168991 154.656525 219.05001 155.376239 219.05001zM159.368594 217.479452C159.192061 217.656226 158.974792 217.744611 158.716781 217.744611 158.458771 217.744611 158.238107 217.652826 158.054784 217.469254 157.87146 217.285681 157.7798 217.064717 157.7798 216.806356 157.7798 216.547994 157.87146 216.32703 158.054784 216.143458 158.238107 215.959885 158.458771 215.8681 158.716781 215.8681 158.974792 215.8681 159.192061 215.959885 159.368594 216.143458 159.545128 216.32703 159.633393 216.547994 159.633393 216.806356 159.633393 217.064717 159.545128 217.28908 159.368594 217.479452zM157.7798 220.620569C157.7798 219.845484 158.261865 219.349165 159.22601 219.131598 159.416123 219.077206 159.551916 219.05001 159.633393 219.05001L159.633393 228.310185C159.633393 228.582145 159.568892 228.823505 159.439886 229.034274 159.310881 229.245043 159.158114 229.401417 158.98158 229.503402 158.805047 229.605387 158.625121 229.686973 158.441798 229.748164 158.258474 229.809355 158.098918 229.846749 157.963122 229.860347L157.7798 229.880744 157.7798 220.620569zM172.995562 222.231921L178.719296 229.880744 178.169328 229.880744C177.612569 229.880744 177.123714 229.816154 176.702749 229.686973 176.281784 229.557793 175.928722 229.289237 175.643553 228.881297L171.814151 223.761685 170.510525 225.434228 170.510525 228.41217C170.510525 228.588943 170.476576 228.755516 170.408679 228.911893 170.340781 229.068269 170.252516 229.194049 170.14388 229.289235 170.035244 229.384421 169.916425 229.469407 169.787419 229.544195 169.658414 229.618984 169.526016 229.676775 169.390221 229.717569 169.254426 229.758363 169.132212 229.788958 169.023576 229.809355 168.91494 229.829752 168.826674 229.846749 168.758777 229.860347L168.656931 229.860347 168.656931 216.867546C168.656931 216.677175 168.690879 216.507202 168.758777 216.357625 168.826674 216.208047 168.91494 216.082268 169.023576 215.980283 169.132212 215.878298 169.254426 215.789912 169.390221 215.715124 169.526016 215.640335 169.658414 215.585944 169.787419 215.551949 169.916425 215.517954 170.035244 215.487359 170.14388 215.460163 170.252516 215.432967 170.340781 215.419369 170.408679 215.419369L170.510525 215.398972 170.510525 222.82343 175.663922 216.174053C176.084887 215.65733 176.7978 215.398972 177.802684 215.398972L178.291543 215.398972 172.995562 222.231921zM186.398469 220.600172C186.398469 220.328212 186.462971 220.090251 186.591976 219.886282 186.720981 219.682312 186.870353 219.529337 187.040097 219.427352 187.209841 219.325368 187.396557 219.243781 187.600249 219.18259 187.803942 219.121399 187.956709 219.084005 188.058555 219.070407 188.160402 219.056809 188.224903 219.05001 188.252062 219.05001L188.252062 227.004786C188.252062 227.24955 188.140033 227.450117 187.915971 227.606494 187.691909 227.76287 187.427113 227.895449 187.121574 228.004232 186.816035 228.113016 186.61574 228.221798 186.520684 228.330582 186.167617 228.901697 185.739869 229.302831 185.237427 229.533997 184.734985 229.765163 184.117127 229.880744 183.383833 229.880744 182.433268 229.880744 181.621904 229.496607 180.949719 228.728321 180.277533 227.960035 179.941445 226.943602 179.941445 225.67899L179.941445 219.05001C179.995763 219.063608 180.06366 219.073807 180.145137 219.080606 180.226614 219.087405 180.375986 219.121399 180.593258 219.18259 180.810531 219.243781 181.000641 219.325368 181.163595 219.427352 181.326549 219.529337 181.472526 219.682312 181.601532 219.886282 181.730537 220.090251 181.795039 220.328212 181.795039 220.600172L181.795039 225.475022C181.795039 225.801373 181.832382 226.114122 181.907069 226.413277 181.981756 226.712433 182.100575 227.011584 182.263529 227.310739 182.426484 227.609895 182.670911 227.847856 182.996819 228.024629 183.322727 228.201403 183.716527 228.289788 184.17823 228.289788 184.843626 228.289788 185.380009 228.041629 185.787394 227.545303 186.194779 227.048977 186.398469 226.549259 186.398469 226.046134L186.398469 220.600172zM190.696361 216.133259C190.696361 215.8613 190.760863 215.619939 190.889868 215.409171 191.018874 215.198402 191.175036 215.042028 191.358359 214.940043 191.541682 214.838058 191.725003 214.756471 191.908326 214.695281 192.09165 214.63409 192.244417 214.596696 192.366632 214.583098L192.549955 214.562701 192.549955 228.310185C192.549955 228.582145 192.488848 228.823505 192.366632 229.034274 192.244417 229.245043 192.09165 229.401417 191.908326 229.503402 191.725003 229.605387 191.541682 229.686973 191.358359 229.748164 191.175036 229.809355 191.015479 229.846749 190.879684 229.860347L190.696361 229.880744 190.696361 216.133259zM199.169932 219.05001C199.685953 219.05001 200.154439 219.121399 200.575404 219.264177 200.996368 219.406956 201.393563 219.631319 201.767 219.937274 202.140436 220.243228 202.428996 220.685156 202.632689 221.26307 202.836381 221.840984 202.938226 222.531071 202.938226 223.333351L202.938226 227.086374C202.938226 227.399127 202.826197 227.637088 202.602135 227.800264 202.378073 227.96344 202.113277 228.096018 201.807738 228.198003 201.502199 228.299987 201.301904 228.412169 201.206848 228.534551 200.85378 228.983284 200.409058 229.319829 199.872668 229.544195 199.336277 229.768562 198.810079 229.880744 198.294058 229.880744 198.049627 229.880744 197.788225 229.850149 197.509845 229.788958 197.231465 229.727767 196.925931 229.615585 196.593233 229.45241 196.260535 229.289234 195.965185 229.081868 195.707175 228.830305 195.449164 228.578743 195.231895 228.238798 195.055362 227.810462 194.878828 227.382126 194.790562 226.902805 194.790562 226.372484 194.790562 225.298243 195.143624 224.407589 195.849759 223.700495 196.555893 222.9934 197.560762 222.639858 198.864394 222.639858 199.176723 222.639858 199.916795 222.769037 201.084633 223.027398 201.057474 222.361098 200.840205 221.79679 200.43282 221.334459 200.025434 220.872128 199.482262 220.640966 198.803287 220.640966 198.328004 220.654564 197.896861 220.729351 197.509845 220.865331 197.122829 221.001311 196.657738 221.246071 196.114558 221.599618 195.938024 221.708402 195.81581 221.688005 195.747913 221.538427 195.680015 221.416046 195.727543 221.273269 195.890497 221.110093 196.420098 220.538978 197.007403 220.052858 197.652429 219.651718 198.297456 219.250578 198.803285 219.05001 199.169932 219.05001zM201.084633 226.494865L201.084633 224.516369C200.06617 224.298802 199.28536 224.210416 198.742179 224.25121 198.18542 224.278406 197.696565 224.468775 197.2756 224.822322 196.854635 225.175869 196.644156 225.678987 196.644156 226.33169 196.644156 226.902805 196.827477 227.371928 197.194123 227.739073 197.56077 228.106219 198.056415 228.289788 198.681072 228.289788 199.183514 228.289788 199.709712 228.102819 200.259682 227.728875 200.809652 227.35493 201.084633 226.943598 201.084633 226.494865zM219.376138 219.05001L219.844628 219.05001 216.361502 229.880744 216.157811 229.880744C216.076334 229.880744 215.920172 229.860347 215.68932 229.819553 215.458468 229.778759 215.251384 229.720969 215.068061 229.64618 214.884737 229.571391 214.694627 229.445611 214.497724 229.268838 214.300821 229.092064 214.161633 228.888098 214.080156 228.656932L212.328409 221.78319 209.761895 229.880744 209.548018 229.880744C209.459752 229.880744 209.30359 229.860347 209.079528 229.819553 208.855466 229.778759 208.648381 229.720969 208.458268 229.64618 208.268155 229.571391 208.078045 229.445611 207.887932 229.268838 207.697819 229.092064 207.562026 228.888098 207.480549 228.656932L204.160376 219.05001 204.567759 219.05001C204.866508 219.05001 205.172042 219.131597 205.484371 219.294773 205.7967 219.457948 206.020758 219.709507 206.156553 220.049457L208.702698 227.106771 211.065521 220.069853C211.201316 219.702708 211.418585 219.440951 211.717334 219.284574 212.016083 219.128198 212.314828 219.05001 212.613577 219.05001L213.000591 219.05001 215.302306 227.106771C215.587476 226.263696 215.903194 225.284657 216.249472 224.169623 216.595749 223.054589 216.887704 222.112943 217.125346 221.344657 217.362987 220.576372 217.508965 220.124246 217.563283 219.988266 217.671919 219.675513 217.909556 219.440951 218.276203 219.284574 218.64285 219.128198 219.009491 219.05001 219.376138 219.05001zM224.631381 219.05001C225.147402 219.05001 225.615888 219.121399 226.036853 219.264177 226.457818 219.406956 226.855012 219.631319 227.228449 219.937274 227.601885 220.243228 227.890445 220.685156 228.094138 221.26307 228.297831 221.840984 228.399675 222.531071 228.399675 223.333351L228.399675 227.086374C228.399675 227.399127 228.287646 227.637088 228.063584 227.800264 227.839522 227.96344 227.574726 228.096018 227.269187 228.198003 226.963648 228.299987 226.763353 228.412169 226.668297 228.534551 226.31523 228.983284 225.870507 229.319829 225.334117 229.544195 224.797726 229.768562 224.271528 229.880744 223.755507 229.880744 223.511076 229.880744 223.249674 229.850149 222.971294 229.788958 222.692914 229.727767 222.38738 229.615585 222.054682 229.45241 221.721984 229.289234 221.426634 229.081868 221.168624 228.830305 220.910613 228.578743 220.693344 228.238798 220.516811 227.810462 220.340277 227.382126 220.252012 226.902805 220.252012 226.372484 220.252012 225.298243 220.605073 224.407589 221.311208 223.700495 222.017342 222.9934 223.022211 222.639858 224.325843 222.639858 224.638172 222.639858 225.378244 222.769037 226.546082 223.027398 226.518923 222.361098 226.301654 221.79679 225.894269 221.334459 225.486883 220.872128 224.943711 220.640966 224.264736 220.640966 223.789453 220.654564 223.35831 220.729351 222.971294 220.865331 222.584278 221.001311 222.119187 221.246071 221.576007 221.599618 221.399473 221.708402 221.27726 221.688005 221.209362 221.538427 221.141465 221.416046 221.188992 221.273269 221.351946 221.110093 221.881547 220.538978 222.468852 220.052858 223.113878 219.651718 223.758905 219.250578 224.264734 219.05001 224.631381 219.05001zM226.546082 226.494865L226.546082 224.516369C225.527619 224.298802 224.746809 224.210416 224.203628 224.25121 223.646869 224.278406 223.158014 224.468775 222.737049 224.822322 222.316084 225.175869 222.105605 225.678987 222.105605 226.33169 222.105605 226.902805 222.288926 227.371928 222.655572 227.739073 223.022219 228.106219 223.517864 228.289788 224.142521 228.289788 224.644963 228.289788 225.171161 228.102819 225.721131 227.728875 226.271101 227.35493 226.546082 226.943598 226.546082 226.494865zM235.508512 219.05001C235.712205 219.05001 235.970211 219.097603 236.28254 219.192788 236.26896 219.233582 236.251986 219.287973 236.231617 219.355963 236.211248 219.423953 236.156931 219.542934 236.068664 219.712908 235.980397 219.882883 235.881947 220.032459 235.773311 220.161639 235.664675 220.29082 235.518697 220.406401 235.335374 220.508386 235.152051 220.610371 234.944966 220.661362 234.714115 220.661362 234.062298 220.634166 233.529311 220.872127 233.115136 221.375253 232.700961 221.878378 232.493876 222.381495 232.493876 222.88462L232.493876 228.310185C232.493876 228.582145 232.429375 228.823505 232.300369 229.034274 232.171364 229.245043 232.018597 229.401417 231.842063 229.503402 231.66553 229.605387 231.485604 229.686973 231.302281 229.748164 231.118957 229.809355 230.9594 229.846749 230.823605 229.860347L230.640283 229.880744 230.640283 221.946365C230.640283 221.688003 230.755707 221.484037 230.986559 221.334459 231.21741 221.184881 231.482207 221.052303 231.780956 220.93672 232.079705 220.821137 232.276605 220.708956 232.371661 220.600172 232.738308 220.042655 233.172846 219.64492 233.675288 219.406955 234.177729 219.168991 234.788798 219.05001 235.508512 219.05001zM244.980171 220.600172C245.048069 220.695358 245.231389 220.797341 245.530138 220.906125 245.828887 221.014909 246.100474 221.150886 246.344905 221.314062 246.589336 221.477238 246.71155 221.681204 246.71155 221.925968L246.71155 229.146457C246.71155 229.853551 246.60631 230.496046 246.395828 231.07396 246.185345 231.651874 245.913759 232.124397 245.581061 232.491542 245.248363 232.858687 244.868143 233.168036 244.440388 233.419599 244.012634 233.671162 243.591675 233.847933 243.1775 233.949917 242.763325 234.051902 242.359341 234.102894 241.965535 234.102894 241.721104 234.102894 241.405385 234.014508 241.018369 233.837735 240.631354 233.660961 240.223974 233.416201 239.79622 233.103448 239.368465 232.790694 238.98485 232.45075 238.645362 232.083605 238.42809 231.866037 238.407721 231.696065 238.584255 231.573683 238.679312 231.505693 238.787946 231.505693 238.910162 231.573683 239.426183 231.913632 239.894669 232.148194 240.315633 232.277375 240.736598 232.406556 241.198295 232.471145 241.700736 232.471145 241.904429 232.471145 242.131882 232.443949 242.383103 232.389558 242.634324 232.335166 242.909305 232.233182 243.208054 232.083605 243.506803 231.934027 243.774995 231.747058 244.012636 231.522691 244.250277 231.298324 244.447177 230.995774 244.603342 230.615031 244.759506 230.234287 244.837587 229.805958 244.837587 229.330028L244.837587 228.677329C244.375884 229.13966 243.941346 229.455808 243.533961 229.625783 243.126575 229.795758 242.658089 229.880744 242.128489 229.880744 240.729799 229.880744 239.54161 229.360629 238.563886 228.320384 237.586161 227.280139 237.097306 226.018945 237.097306 224.536766 237.097306 223.095381 237.575977 221.82059 238.533332 220.712355 239.490687 219.60412 240.553268 219.05001 241.721105 219.05001 242.209968 219.05001 242.637716 219.090804 243.004363 219.172392 243.371009 219.253979 243.724071 219.410354 244.063559 219.641519 244.403046 219.872685 244.708581 220.192233 244.980171 220.600172zM244.837587 225.495419L244.837587 223.353748C244.837587 222.986603 244.745927 222.605865 244.562603 222.211524 244.37928 221.817183 244.066956 221.460241 243.625622 221.140689 243.184288 220.821136 242.671669 220.661362 242.08775 220.661362 241.232241 220.661362 240.495564 221.048899 239.877697 221.823984 239.259829 222.599068 238.9509 223.50332 238.9509 224.536766 238.9509 225.570212 239.259829 226.454067 239.877697 227.188358 240.495564 227.922649 241.245821 228.289788 242.128489 228.289788 242.780305 228.289788 243.394769 228.031431 243.971898 227.514708 244.549027 226.997985 244.837587 226.324895 244.837587 225.495419zM252.720452 219.05001C253.236473 219.05001 253.704959 219.121399 254.125924 219.264177 254.546888 219.406956 254.944083 219.631319 255.317519 219.937274 255.690956 220.243228 255.979516 220.685156 256.183209 221.26307 256.386901 221.840984 256.488746 222.531071 256.488746 223.333351L256.488746 227.086374C256.488746 227.399127 256.376717 227.637088 256.152655 227.800264 255.928593 227.96344 255.663797 228.096018 255.358258 228.198003 255.052719 228.299987 254.852424 228.412169 254.757367 228.534551 254.4043 228.983284 253.959578 229.319829 253.423188 229.544195 252.886797 229.768562 252.360599 229.880744 251.844578 229.880744 251.600147 229.880744 251.338745 229.850149 251.060365 229.788958 250.781985 229.727767 250.476451 229.615585 250.143753 229.45241 249.811055 229.289234 249.515705 229.081868 249.257694 228.830305 248.999684 228.578743 248.782415 228.238798 248.605881 227.810462 248.429348 227.382126 248.341082 226.902805 248.341082 226.372484 248.341082 225.298243 248.694144 224.407589 249.400279 223.700495 250.106413 222.9934 251.111281 222.639858 252.414914 222.639858 252.727243 222.639858 253.467315 222.769037 254.635152 223.027398 254.607993 222.361098 254.390725 221.79679 253.983339 221.334459 253.575954 220.872128 253.032782 220.640966 252.353807 220.640966 251.878524 220.654564 251.447381 220.729351 251.060365 220.865331 250.673349 221.001311 250.208258 221.246071 249.665078 221.599618 249.488544 221.708402 249.36633 221.688005 249.298433 221.538427 249.230535 221.416046 249.278063 221.273269 249.441017 221.110093 249.970618 220.538978 250.557923 220.052858 251.202949 219.651718 251.847976 219.250578 252.353805 219.05001 252.720452 219.05001zM254.635152 226.494865L254.635152 224.516369C253.616689 224.298802 252.835879 224.210416 252.292699 224.25121 251.735939 224.278406 251.247084 224.468775 250.82612 224.822322 250.405155 225.175869 250.194676 225.678987 250.194676 226.33169 250.194676 226.902805 250.377996 227.371928 250.744643 227.739073 251.11129 228.106219 251.606934 228.289788 252.231592 228.289788 252.734033 228.289788 253.260231 228.102819 253.810202 227.728875 254.360172 227.35493 254.635152 226.943598 254.635152 226.494865z"/>
  </g>
</svg>
