<?xml version="1.0" standalone="no"?>
<!DOCTYPE svg PUBLIC "-//W3C//DTD SVG 1.1//EN" "http://www.w3.org/Graphics/SVG/1.1/DTD/svg11.dtd" >
<svg xmlns="http://www.w3.org/2000/svg">
<metadata></metadata>
<defs>
<font id="regular" horiz-adv-x="1458" >
<font-face units-per-em="2048" ascent="1638" descent="-410" />
<missing-glyph horiz-adv-x="826" />
<glyph horiz-adv-x="0" />
<glyph unicode="&#xd;" horiz-adv-x="693" />
<glyph unicode=" "  horiz-adv-x="826" />
<glyph unicode="&#x09;" horiz-adv-x="826" />
<glyph unicode="&#xa0;" horiz-adv-x="826" />
<glyph unicode="!" horiz-adv-x="655" d="M141 98q4 44 36 74t74 30q44 0 72 -30t24 -74q-3 -48 -35.5 -75t-73.5 -27t-70.5 27.5t-26.5 74.5zM258.5 344q-8.5 19 3.5 149l57 441q16 128 26 184q22 126 55.5 144.5t80.5 18.5q112 0 57 -213q-11 -60 -27 -123l-108 -453q-35 -145 -50.5 -156t-50.5 -11t-43.5 19z " />
<glyph unicode="&#x22;" horiz-adv-x="828" d="M94 849q4 30 36 48q88 46 95 117q-48 0 -79 29.5t-26 82.5q4 45 41 76.5t83 31.5q34 0 61 -19t39 -55t7 -91q-7 -71 -44 -134t-84 -99t-82 -36q-23 0 -35.5 15t-11.5 34zM436 849q4 30 35 48q89 46 96 117q-48 0 -79.5 29.5t-26.5 82.5q4 45 41 76.5t84 31.5 q34 0 60.5 -19t39 -55t6.5 -91q-7 -71 -43.5 -134t-84 -99t-82.5 -36q-23 0 -35.5 15t-10.5 34z" />
<glyph unicode="#" horiz-adv-x="944" d="M52 422q0 41 28 66t81 25h38l45 234h-83q-52 0 -80.5 26t-28.5 64q0 40 28 64.5t81 24.5h120l37 184q10 46 21 73t29 40.5t50 13.5q42 0 64.5 -22.5t22.5 -58.5q0 -8 -13 -80l-31 -150h177l38 184q8 41 15.5 67t26 43.5t55.5 17.5q41 0 64 -21.5t23 -58.5q0 -16 -2 -32.5 t-5.5 -31.5t-3.5 -18l-30 -152q115 -3 115 -88q0 -41 -27.5 -65t-80.5 -24h-41l-49 -234h90q53 0 80.5 -26t27.5 -65q0 -40 -26.5 -64.5t-81.5 -24.5h-124l-38 -184q-8 -44 -15 -68.5t-26.5 -42.5t-55.5 -18q-40 0 -63 23t-23 58q0 34 11 82l30 150h-178l-38 -184 q-15 -68 -31 -98.5t-66 -30.5q-41 0 -64 23t-23 58q0 19 3.5 41.5t6.5 40.5l30 150q-111 3 -110 89zM378 513h179l46 234h-177z" />
<glyph unicode="$" horiz-adv-x="912" d="M72 411q4 31 32 56t64 25q30 0 47.5 -14t23.5 -38q10 -53 19.5 -81.5t32 -51.5t64.5 -35l41 300q-83 25 -138 54t-83.5 84t-17.5 139q16 112 97 183t216 83l9 69q7 55 48 54q41 0 34 -53l-9 -70q68 -7 115 -28.5t77 -63.5q25 -34 36.5 -69t7.5 -64q-5 -33 -32 -56 t-61 -23q-63 0 -72 68q-11 81 -89 108l-36 -270q76 -22 121.5 -40t78.5 -53q35 -35 50 -84.5t7 -108.5q-10 -74 -53.5 -138.5t-116.5 -105.5t-166 -48l-22 -161q-5 -38 -14.5 -56t-35.5 -18q-23 0 -30.5 14.5t-3.5 44.5l23 175q-74 8 -127 35.5t-85.5 67.5t-44.5 84t-7 86z M321 866q-7 -51 17.5 -78t80.5 -47l33 248q-56 -15 -90 -42t-41 -81zM436 265q68 14 109 53.5t48 91.5q8 56 -23 86.5t-95 52.5z" />
<glyph unicode="%" horiz-adv-x="1403" d="M34 911q11 109 44.5 181.5t95 109t151.5 36.5q64 0 111 -19.5t77 -60.5t40.5 -100.5t3.5 -138.5q-16 -158 -94 -236t-199 -78q-74 0 -131 33.5t-82.5 103t-16.5 169.5zM188.5 802.5q4.5 -46.5 24.5 -69.5t61 -23q61 0 88.5 52t38.5 165q11 109 -6.5 158.5t-77.5 49.5 q-40 0 -66 -23.5t-39.5 -70t-20.5 -117.5q-7 -75 -2.5 -121.5zM210 19q3 18 22 42l810 1127q20 30 36 45.5t42 15.5q25 0 38 -15t12 -38q-3 -18 -38 -67l-804 -1117q-31 -45 -64 -45q-19 0 -37 14.5t-17 37.5zM823 310q16 162 86.5 244t205.5 82q64 0 110.5 -19.5t77.5 -60 t42 -100t3 -138.5q-16 -158 -94 -236t-200 -78q-75 0 -131 33.5t-82.5 102.5t-17.5 170zM979 324q-11 -112 7.5 -164t78.5 -52q61 0 88.5 53t38.5 165q11 106 -7 156t-78 50q-41 0 -67 -23t-39.5 -68.5t-21.5 -116.5z" />
<glyph unicode="&#x26;" horiz-adv-x="1171" d="M7 352q7 63 33.5 115.5t68 95t99.5 81.5t133 74q-53 79 -78 141t-17 128q10 78 58 142t132 102.5t191 38.5q106 0 178.5 -39.5t103 -104t22.5 -132.5q-11 -94 -82 -164.5t-200 -142.5q35 -49 66.5 -93t60 -82t53.5 -64q16 23 50 88t61 93.5t69 28.5q40 0 66.5 -28.5 t22.5 -68.5q-5 -37 -39.5 -105t-93.5 -150q27 -27 88.5 -82t74.5 -74.5t9 -52.5q-5 -44 -40 -74t-74 -30q-40 0 -73.5 25.5t-142.5 123.5q-60 -51 -123 -83.5t-132 -49t-151 -16.5q-105 0 -184.5 31t-129.5 83.5t-69 116t-11 128.5zM239 366q-4 -38 7 -73.5t37.5 -65.5 t64 -46.5t81.5 -16.5q42 0 84.5 13.5t81.5 38t82 63.5q-67 68 -118.5 135.5t-122.5 168.5q-91 -49 -140 -99t-57 -118zM463 998q-3 -25 8 -54t29.5 -57.5t48.5 -72.5q93 55 136 92t48 91q7 52 -27 87.5t-93 35.5q-57 0 -101 -36.5t-49 -85.5z" />
<glyph unicode="'" horiz-adv-x="3377" d="M2987 894l4 178l32 157h198l-33 -157l-67 -178h-134z" />
<glyph unicode="(" horiz-adv-x="823" d="M78 632q12 119 43 222.5t80.5 203.5t120.5 202q45 63 72 89t50 33t58 7q40 0 37 -20q-1 -10 -44 -87.5t-83.5 -163.5t-80 -214t-51.5 -272q-14 -142 1 -269t40.5 -219.5t53.5 -166t26 -79.5q-1 -22 -39 -22t-59.5 7.5t-42.5 35.5t-55 89q-52 104 -83.5 200t-43 200 t-0.5 224z" />
<glyph unicode=")" horiz-adv-x="955" d="M285 1369q-1 19 39 20q34 0 57 -7t50.5 -33t72.5 -89q70 -102 120 -202t81 -203.5t42 -222.5q12 -120 0.5 -224t-43 -200t-84.5 -200q-33 -61 -54 -89t-43 -35.5t-59 -7.5q-38 0 -39 22q-3 7 25 80t54 165.5t41 219.5t1 269q-14 143 -53.5 271.5t-79.5 214.5t-83 164 t-45 87z" />
<glyph unicode="*" horiz-adv-x="714" d="M217 1076q0 11 4 23q7 23 23 36q11 7 22 6q7 0 13 -1q14 -4 49 -41q30 -31 72 -49q-3 46 -23 86q-25 42 -25 55q0 20 15 33t41 13q25 0 40.5 -11.5t15.5 -30.5q0 -14 -23 -59q-22 -40 -25 -85q44 16 76 49q33 35 45 40q7 1 13 1q11 0 23 -5q16 -12 25 -36q4 -12 4 -23 q0 -10 -3 -19q-7 -19 -26 -24q-3 -1 -12 -2q-16 0 -49 7q-19 3 -35 3q-27 0 -54 -7q29 -37 69 -55q45 -20 51 -31q8 -11 9 -25q0 -5 -2 -11q-5 -19 -26 -34q-18 -15 -38 -15t-31 17q-8 11 -15 61q-7 44 -30 82q-26 -38 -32 -82q-5 -49 -12 -59q-12 -16 -33 -17h-3 q-18 0 -36 13q-20 14 -26 34q-3 5 -3 13q0 11 7 20q10 12 54 34q40 19 69 54q-26 8 -52 8q-18 0 -34 -4q-35 -7 -52 -7q-5 0 -9 1q-20 5 -27 25q-4 8 -4 19z" />
<glyph unicode="+" horiz-adv-x="1630" d="M276 887q23 76 82 78q541 1 949 -5q104 -1 69 -109q-20 -69 -84 -66q-324 -5 -973 -5q-78 -1 -43 107zM646 373q63 315 203 949q15 75 122 50q74 -18 63 -75q-115 -527 -209 -927q-23 -101 -129 -76q-66 16 -50 79z" />
<glyph unicode="," horiz-adv-x="574" d="M109 135q0 61 46 103t107 42q46 0 84 -25.5t59 -74t21 -120.5q0 -96 -40.5 -179t-99 -132t-106.5 -49q-30 0 -48.5 19.5t-18.5 45.5q0 40 40 64q113 63 113 157q-64 0 -110.5 40t-46.5 109z" />
<glyph unicode="-" d="M199 696q18 76 105 78q466 1 918 2q94 -4 87 -117q-20 -68 -110 -71h-946q-67 8 -54 108z" />
<glyph unicode="." horiz-adv-x="417" d="M20 147q1 56 41.5 98t100.5 42q59 0 100 -41t41 -99q0 -67 -42.5 -105t-98.5 -38q-57 0 -99.5 37.5t-42.5 105.5z" />
<glyph unicode="/" horiz-adv-x="865" d="M79 -149l478 1659h182l-478 -1659h-182z" />
<glyph unicode=":" horiz-adv-x="637" d="M37 193q0 72 50.5 122.5t121.5 50.5q72 0 122.5 -50.5t50.5 -122.5q0 -71 -50.5 -122t-122.5 -51q-71 0 -121.5 51t-50.5 122zM243 1070q0 72 50.5 123t121.5 51q72 0 122.5 -50.5t50.5 -123.5q0 -71 -50.5 -121.5t-122.5 -50.5q-71 0 -121.5 50.5t-50.5 121.5z" />
<glyph unicode=";" horiz-adv-x="673" d="M82 -304q4 48 52 76q139 74 149 187q-75 0 -127 46.5t-45 129.5q5 72 63 122t132 50q55 0 97 -30t63 -88t15 -143q-10 -113 -66 -212.5t-129.5 -157.5t-131.5 -58q-35 0 -55 23t-17 55zM317 1072q0 72 50.5 122.5t121.5 50.5t121.5 -50.5t50.5 -122.5q0 -71 -50.5 -121.5 t-121.5 -50.5t-121.5 50.5t-50.5 121.5z" />
<glyph unicode="&#x3c;" horiz-adv-x="1305" d="M34 591l10 98l1041 568l-19 -196l-775 -421l692 -416l-19 -197z" />
<glyph unicode="=" horiz-adv-x="1211" d="M131 487q19 64 68 66q452 1 787 -1q83 -3 67 -95q-18 -57 -71 -56q-272 -4 -815 -4q-53 8 -36 90zM176 887q19 64 68 66q453 1 787 -1q85 -3 67 -95q-18 -57 -71 -56q-270 -4 -814 -4q-55 8 -37 90z" />
<glyph unicode="&#x3e;" horiz-adv-x="1384" d="M176 3l27 199l805 422l-684 427l28 200l919 -577l-14 -99z" />
<glyph unicode="?" horiz-adv-x="1052" d="M126 898q8 78 66 158.5t160.5 134t231.5 53.5q120 0 207.5 -44.5t130 -120t32.5 -166.5q-7 -70 -40 -123t-77 -91t-154 -130q-30 -26 -49.5 -45t-29.5 -35.5t-16 -32.5t-19 -56q-25 -87 -108 -87q-42 0 -68.5 28.5t-21.5 83.5q7 70 33.5 121t66.5 89t105 91 q57 46 83 70.5t45.5 53t21.5 62.5q7 66 -37.5 111.5t-121.5 45.5q-91 0 -139 -45.5t-87 -136.5q-38 -93 -116 -92q-46 0 -74.5 32.5t-24.5 70.5zM337 115q0 49 34.5 83.5t83.5 34.5t83 -34.5t34 -83.5t-34 -83.5t-83 -34.5t-83.5 34.5t-34.5 83.5z" />
<glyph unicode="@" horiz-adv-x="1394" d="M33 594q26 142 96 265.5t175.5 215t243 142.5t293.5 51q127 0 226 -36.5t162 -106.5t84.5 -164.5t1.5 -209.5q-16 -90 -64 -175.5t-120.5 -154.5t-160 -108.5t-181.5 -39.5q-53 0 -80.5 18.5t-29.5 58.5q-68 -57 -146 -72.5t-143.5 14t-97 98.5t-12.5 168 q19 105 82.5 207t158.5 167t200 65q120 0 160 -90l30 73h176l-189 -479q-18 -45 -20 -60q-3 -15 3 -24t16 -9q37 0 102.5 47t123 128.5t73.5 176.5q15 81 -2 152t-65.5 123t-127 81.5t-186.5 29.5t-204 -28t-174.5 -81.5t-138.5 -131.5q-53 -68 -89.5 -150.5t-52.5 -170.5 q-20 -115 8.5 -209.5t103.5 -158.5t193.5 -91.5t277.5 -11.5q126 15 219 56t166 116h142q-48 -71 -113.5 -127t-147.5 -94.5t-178.5 -58.5t-205.5 -20q-165 0 -288.5 43t-198.5 124t-100.5 194t-0.5 248zM452 560q-15 -79 11 -122t79 -43q63 0 120.5 49.5t95.5 126t52 149.5 q5 35 2.5 63t-15 49t-33.5 33t-51 12q-59 0 -114.5 -46t-94 -119t-52.5 -152z" />
<glyph unicode="K" horiz-adv-x="1886" />
<glyph unicode="M" horiz-adv-x="0" />
<glyph unicode="P" horiz-adv-x="1529" />
<glyph unicode="S" horiz-adv-x="1481" />
<glyph unicode="T" horiz-adv-x="1843" />
<glyph unicode="V" horiz-adv-x="1987" />
<glyph unicode="W" horiz-adv-x="2771" />
<glyph unicode="X" horiz-adv-x="1630" d="M429 262q-19 -24 -19 -51q0 -28 20 -61q34 -54 66 -54q22 0 43 26q154 182 283 331q145 -188 242 -310q18 -28 43 -28q22 0 49 22q55 43 55 88q0 29 -22 59q-111 150 -240 321q151 179 252 302q26 27 26 58q0 24 -16 49q-30 48 -64 48q-30 0 -64 -38q-113 -130 -241 -277 q-93 123 -195 257q-16 19 -38 19q-26 0 -60 -26q-60 -46 -60 -87q0 -21 15 -40q113 -149 209 -275q-135 -158 -284 -333z" />
<glyph unicode="Z" horiz-adv-x="1534" />
<glyph unicode="[" horiz-adv-x="756" d="M119 135l161 1017q11 64 43 93.5t95 29.5h168q45 0 62.5 -19.5t13.5 -51.5q-12 -72 -99 -72h-112l-155 -976h112q87 0 77 -71q-12 -72 -99 -73h-168q-41 0 -65.5 14t-32.5 41t-1 68z" />
<glyph unicode="]" horiz-adv-x="823" d="M180 87q12 70 96 70h109l158 945h-109q-84 -1 -72 69q5 31 29 50.5t66 19.5h163q60 0 82.5 -28.5t12.5 -90.5l-163 -985q-7 -40 -24 -66t-44.5 -39.5t-68.5 -13.5h-161q-85 0 -74 69z" />
<glyph unicode="_" horiz-adv-x="1477" d="M12 -93h1344v-113h-1344v113z" />
<glyph unicode="`" horiz-adv-x="417" d="M46 1438q0 11 40 11h101q44 0 67 -15.5t49 -66.5l34 -62q20 -31 21 -42q0 -18 -33 -18q-48 0 -93 21q-20 11 -103 86.5t-83 85.5z" />
<glyph unicode="{" horiz-adv-x="853" d="M180 617q7 49 49 74q52 30 75.5 50.5t35.5 54t18.5 72.5t29.5 187q14 93 77 148.5t158 55.5q98 0 88 -79q-5 -37 -23.5 -57.5t-45.5 -24.5q-40 -5 -57 -15.5t-26 -41.5t-21 -119q-12 -86 -28.5 -141t-48 -94t-84.5 -70q42 -30 64.5 -66t26 -93t-8.5 -144 q-8 -67 -9.5 -98.5t5 -47.5t19 -21t42.5 -10q25 -3 38.5 -24.5t9.5 -56.5q-10 -81 -109 -81q-60 0 -104.5 25.5t-64.5 72t-13 106.5q11 102 17 163t5 79q-4 46 -21 68.5t-46.5 42.5t-40.5 35.5t-7 49.5z" />
<glyph unicode="|" horiz-adv-x="678" d="M244 -109v1534q0 79 107 80q100 0 105 -78v-1529q-5 -94 -105 -95q-106 0 -107 88z" />
<glyph unicode="}" horiz-adv-x="653" d="M20 59q3 34 23 56t50 26q34 5 48.5 10t25 21t16 49t10.5 100q5 89 20 147t48 94.5t87 68.5q-54 31 -81 70.5t-33.5 95.5t-4.5 144q5 91 2 122.5t-19.5 41.5t-59.5 17q-29 3 -46 24t-15 58q4 81 115 81q104 0 164 -56t56 -150q-5 -152 -6.5 -192t6 -73.5t28.5 -55 t73 -52.5q42 -26 38 -75q-1 -35 -17.5 -51t-52.5 -36.5t-60 -43.5t-38 -70q-5 -18 -10.5 -80t-15.5 -167q-4 -61 -36 -108.5t-86.5 -73.5t-122.5 -26q-109 0 -106 84z" />
<glyph unicode="~" horiz-adv-x="0" d="M1240 878v187q68 87 131.5 118.5t122.5 31.5q70 0 196 -59.5t185 -59.5q56 0 116.5 33.5t138.5 134.5v-187q-68 -86 -131 -116.5t-124 -30.5q-64 0 -190.5 58t-190.5 58q-55 0 -115.5 -33.5t-138.5 -134.5z" />
<glyph unicode="&#xa3;" horiz-adv-x="1242" d="M33 70q4 18 18.5 37.5t42.5 44t82 65.5q51 37 92 102.5t51 129.5q4 22 5 74h-71q-63 0 -92 15.5t-20 60.5q15 83 121 84h51q-18 132 -4 209q18 104 82 185t163.5 127.5t216.5 46.5q104 0 174.5 -26t116.5 -86q81 -102 60 -219q-8 -41 -45.5 -73t-83.5 -32q-82 0 -93 92 q-10 87 -45.5 129.5t-106.5 42.5q-79 0 -135.5 -50.5t-70.5 -130.5q-10 -49 -7 -90.5t14 -124.5h127q70 0 105 -14.5t26 -65.5q-7 -37 -36.5 -58.5t-68.5 -21.5h-150l-3 -14q-15 -86 -67 -157.5t-167 -179.5q30 7 59 13t63.5 11t75.5 5q56 0 156 -14t132 -14q49 0 107.5 18 t73.5 18q38 0 62 -31t17 -72q-12 -71 -98 -108.5t-177 -37.5q-55 0 -301 59q-7 3 -22 7.5t-38.5 8t-55.5 3.5q-35 0 -65 -10t-101 -37.5t-95 -27.5q-31 0 -57 29.5t-18 77.5z" />
<glyph unicode="&#xa4;" horiz-adv-x="1313" d="M142 160l161 159q-44 63 -65 141q-16 57 -17 115q0 60 18 119q22 75 64 135l-161 161l109 110l161 -161q60 41 135 63q60 19 122 19q56 0 113 -16q78 -23 140 -66l161 161l109 -110l-160 -160q42 -63 66 -139q16 -57 16 -116q0 -57 -16 -116q-23 -76 -66 -140l160 -159 l-109 -111l-161 161q-61 -44 -138 -65q-57 -16 -116 -17q-57 0 -116 17q-78 22 -140 65l-161 -161zM363 573q0 -38 12 -76q22 -81 78 -137q56 -55 135 -77q40 -11 80 -11t79 11q79 23 135 77q55 56 78 136q12 40 12 79q0 40 -12 79q-23 79 -78 135q-56 55 -137 78 q-40 11 -79 11q-40 0 -79 -12q-79 -23 -134 -77q-53 -55 -76 -134q-14 -41 -14 -82z" />
<glyph unicode="&#xa9;" horiz-adv-x="1507" d="M147 609q0 162 80 300t218 218t300 80q123 0 231.5 -46t192 -129t129 -191.5t45.5 -231.5q0 -161 -80.5 -299t-218 -218t-299.5 -80q-164 0 -301 80t-217 217t-80 300zM265 609q0 -131 65 -241t174.5 -174t240.5 -64q130 0 241.5 64t175.5 173.5t64 241.5 q0 130 -65 240.5t-175.5 175.5t-240.5 65q-132 0 -241 -65t-174 -175.5t-65 -240.5zM453 609q0 98 36.5 173t104.5 116t161 41q194 0 262 -188l-128 -30q-41 109 -139 109q-74 0 -117 -58t-43 -154q0 -76 18.5 -128t52.5 -78t83 -26q108 0 146 134l127 -42 q-63 -203 -276 -204q-76 0 -142.5 38t-106 114t-39.5 183z" />
<glyph unicode="&#xab;" horiz-adv-x="992" d="M146 661q0 30 36 84l151 227q44 67 90 67q31 0 54 -20t23 -48q0 -23 -9.5 -39.5t-19.5 -31.5l-149 -236l157 -249q22 -31 22 -59q0 -29 -22.5 -50t-53.5 -21q-25 0 -46 16.5t-51 61.5l-146 220q-35 53 -36 78zM522 661q0 27 36 84l151 227q42 67 91 67q31 0 54 -20.5 t23 -47.5q0 -16 -4.5 -27t-10 -18t-17.5 -26l-147 -236l157 -249q23 -37 23 -59q0 -29 -22.5 -50t-55.5 -21q-25 0 -46 16.5t-51 61.5l-145 220q-37 59 -36 78z" />
<glyph unicode="&#xac;" horiz-adv-x="1384" d="M186 754v110h928v-542l-1 -1h-108v433h-819z" />
<glyph unicode="&#xad;" d="M199 696q18 76 105 78q466 1 918 2q94 -4 87 -117q-20 -68 -110 -71h-946q-67 8 -54 108z" />
<glyph unicode="&#xae;" horiz-adv-x="1338" d="M79 627q0 157 77 290t210.5 210t290.5 77q119 0 224 -44.5t185 -124t124 -185t44 -223.5q0 -157 -77 -290.5t-210 -210.5t-290 -77t-290.5 77t-210.5 210.5t-77 290.5zM193 627q0 -126 63 -234t169.5 -169.5t232.5 -61.5q127 0 233.5 62.5t168 169.5t61.5 233 q0 127 -61.5 234t-168 168.5t-233.5 61.5q-126 0 -233 -62t-169.5 -169.5t-62.5 -232.5zM396 318v613h291q67 0 113.5 -22t69.5 -61.5t23 -91.5q0 -66 -43.5 -112.5t-121.5 -56.5q40 -15 64 -45t65 -101l73 -123h-154l-51 98q-35 67 -60.5 98.5t-50 43t-61.5 11.5h-31v-251 h-126zM522 666h99q68 0 103.5 18t35.5 71q0 35 -31 56.5t-95 21.5h-112v-167z" />
<glyph unicode="&#xb0;" horiz-adv-x="1555" d="M123 653h106v-6v-4l10 -89l-105 -17l-2 4v6l-2 6v11l-3 5v4zM134 766l105 -19v3l1 4v6l3 3v3v4l3 3v4v3l2 1v5v3l2 4v3l3 1v6l2 1v6v1l2 3v5l2 2v2l3 4v3l2 3v4l2 3l-99 37v-3l-2 -2l-3 -5v-4l-2 -3v-4l-3 -5v-2l-1 -5l-3 -4v-3l-3 -4v-3l-1 -4v-5l-3 -2v-5v-4l-3 -6v-1 l-1 -6v-4l-3 -2v-5v-5l-2 -1v-6v-4zM165 426l2 -5v-5l5 -6v-3l1 -4l3 -6v-2l3 -5l1 -2v-4l3 -3l3 -4l1 -4v-3l3 -5l3 -2l23 -42l90 56l-3 3l-3 1l-1 5l-3 4l-4 7v6l-3 1l-2 7l-2 3l-2 2v2l-3 5l-1 3v1l-3 3v4l-3 3v3l-3 4l-1 2v2l-3 8l-2 1v6zM217 980l92 -54l1 1l3 3l2 7 l4 4l5 7l2 2l6 7l1 3l3 3l3 4l1 2v2l10 9l2 3l10 11v3l1 2l3 2l-79 72l-2 -4l-2 -3l-3 -2l-10 -11l-4 -6l-9 -11l-2 -2l-2 -5l-3 -2l-2 -4l-2 -3l-7 -10l-3 -4l-4 -5l-3 -4l-2 -3l-4 -7v-1l-3 -6h-3zM283 228l2 -1l2 -6l79 -74l67 84l-10 7l-1 2l-12 11l-3 3l-44 44z M373 1152l64 -83h3l6 7l6 1l1 3l66 42l-52 92l-7 -4l-1 -3l-6 -1h-1l-6 -3zM463 85l3 -2l6 -5h3l7 -4l4 -3h4l3 -1l5 -3l2 -3h5l4 -3l3 -1l4 -3h3l4 -2l5 -2h2l5 -2l2 -3h5l4 -2l3 -2h4l5 -3h2l5 -1h2l35 98h-3l-2 3h-4l-3 2h-4l-3 2h-1l-6 2h-3l-1 3h-5l-2 3l-2 1h-5l-2 3 h-6l-1 3l-3 1h-4l-3 3l-2 3h-2l-5 1l-4 3l-6 2l-4 3l-3 1zM573 1260l36 -101v2h4h3l4 2h3l2 3h4l3 1h4h3l4 3h3h4l3 3h4l2 3h3h4l3 1h7h4l3 3h4h2l13 2l-17 104h-5l-8 -3h-3l-10 -2h-4l-6 -2h-6l-7 -2h-4l-9 -3l-3 -2h-4l-4 -2h-6h-3l-4 -3h-4l-2 -1l-5 -3h-5l-1 -3h-6h-3z M679 10h1h5l4 -3h3h14l4 -3h3l79 -4v106l-96 7zM793 1189l99 -7l17 104h-4l-5 3h-4l-13 1h-4h-4l-82 6v-107zM889 113l18 -103h2h3l4 1h6l8 3h3l9 2h4l7 2h5l7 2l4 3h6l1 2h6l4 2h4l3 3h5l4 1h3l4 3h4l3 3h3l-36 100h-4l-3 -3h-1l-6 -3h-2l-4 -1h-3h-4l-3 -3h-4l-3 -3h-1h-6 l-2 -1h-4h-3l-4 -3h-3h-4l-7 -3h-3l-4 -2h-3h-4zM986 1159l4 -3h3l2 -2h4l3 -2l4 -2h3l3 -3h4l3 -3h1l5 -1h3l4 -3l3 -3h1l6 -1l1 -3h3l4 -3h3l2 -1l4 -3h3l3 -2l1 -2h6l1 -2l52 92l-5 2l-2 3h-5l-2 2l-5 2l-3 2l-4 3h-4l-3 3l-4 1l-3 3h-4l-2 3l-6 1h-4l-3 3l-4 2h-4l-3 2 l-5 3h-1l-6 2l-4 2h-3l-4 2l-4 3h-3l-5 3zM1072 176l50 -93l4 2l6 2l87 58l-67 83l-2 -1zM1155 1066l11 -9l3 -3l13 -14l3 -1l40 -40l80 70h-2l-11 15l-6 3l-1 3l-63 57zM1225 296l78 -72v3l5 1l11 16l3 3l9 12l4 5v2l4 2l6 6l7 10l1 5l3 5l3 4l2 2l4 7l3 4l4 6l-90 56 l-4 -6v-2l-6 -7l-2 -4l-4 -4l-3 -6l-4 -7l-3 -2l-1 -2l-3 -5l-4 -4l-8 -10l-2 -3l-12 -13zM1282 920h3v-4l1 -3l6 -4v-5l4 -7l2 -4l2 -3l3 -4l2 -5v-2l3 -2l1 -5v-2l3 -3v-3l3 -4l1 -3v-1l3 -5v-2l3 -2l1 -7v-3l3 -3l97 38v2l-2 5l-2 7l-3 4v3l-2 4l-2 3v4l-3 3l-3 4v5l-1 2 l-3 5l-3 3v4l-1 3l-26 43zM1323 457l100 -36l2 5v1l3 6v1l2 6l2 4v2l3 5v5l1 1v6l3 4v3l3 4v4l3 3v5l1 4v3v4l3 4v3l2 5v4v3l2 4v4v6l2 1l-103 19v-3l-3 -1v-5l-3 -7v-3v-1l-1 -6v-1v-6l-3 -1v-3v-4l-3 -2v-6l-1 -1v-3v-4l-3 -3v-3l-2 -4v-2l-2 -3v-4l-3 -3v-4l-2 -3v-1z M1352 743l103 17v-1v-5l3 -7v-4l2 -13v-4v-5l5 -74h-104v6z" />
<glyph unicode="&#xb1;" horiz-adv-x="1089" d="M120 134v214h841v-214h-841zM120 737v215h314v312h212v-312h315v-215h-315v-311h-212v311h-314z" />
<glyph unicode="&#xbb;" horiz-adv-x="1077" d="M150 351q0 25 23 59l156 248l-147 236q-8 14 -15 24t-11 22.5t-4 24.5q0 27 23 48t52 21q48 0 91 -67l150 -227q35 -52 36 -85q0 -25 -36 -77l-143 -220q-30 -45 -52 -61.5t-46 -16.5q-33 0 -55 21t-22 50zM526 351q-1 29 24 59l156 248l-148 236q-10 14 -15.5 23 t-10 20.5t-4.5 27.5q0 27 22.5 48t52.5 21q48 0 93 -67l149 -227q19 -29 28 -46.5t9 -38.5q0 -23 -37 -77l-145 -220q-29 -45 -50.5 -61.5t-46.5 -16.5q-33 0 -55 20.5t-22 50.5z" />
<glyph unicode="&#x2000;" horiz-adv-x="755" />
<glyph unicode="&#x2001;" horiz-adv-x="1510" />
<glyph unicode="&#x2002;" horiz-adv-x="755" />
<glyph unicode="&#x2003;" horiz-adv-x="1510" />
<glyph unicode="&#x2004;" horiz-adv-x="503" />
<glyph unicode="&#x2005;" horiz-adv-x="377" />
<glyph unicode="&#x2006;" horiz-adv-x="251" />
<glyph unicode="&#x2007;" horiz-adv-x="251" />
<glyph unicode="&#x2008;" horiz-adv-x="188" />
<glyph unicode="&#x2009;" horiz-adv-x="302" />
<glyph unicode="&#x200a;" horiz-adv-x="83" />
<glyph unicode="&#x2010;" d="M199 696q18 76 105 78q466 1 918 2q94 -4 87 -117q-20 -68 -110 -71h-946q-67 8 -54 108z" />
<glyph unicode="&#x2011;" d="M199 696q18 76 105 78q466 1 918 2q94 -4 87 -117q-20 -68 -110 -71h-946q-67 8 -54 108z" />
<glyph unicode="&#x2012;" d="M199 696q18 76 105 78q466 1 918 2q94 -4 87 -117q-20 -68 -110 -71h-946q-67 8 -54 108z" />
<glyph unicode="&#x2013;" horiz-adv-x="1368" d="M198 696q17 76 97 78q428 1 844 2q87 -4 81 -117q-19 -68 -102 -71h-870q-62 8 -50 108z" />
<glyph unicode="&#x2014;" horiz-adv-x="2392" d="M200 696q33 76 193 78q858 1 1690 2q173 -4 160 -117q-37 -68 -202 -71h-1742q-123 8 -99 108z" />
<glyph unicode="&#x202f;" horiz-adv-x="302" />
<glyph unicode="&#x205f;" horiz-adv-x="377" />
<glyph unicode="&#x25fc;" horiz-adv-x="682" d="M0 0z" />
</font>
</defs>
</svg>
